<?xml version="1.0" encoding="UTF-8" standalone="no"?>
<!-- Created with Inkscape (http://www.inkscape.org/) -->

<svg
   version="1.1"
   id="svg1"
   width="200"
   height="40"
   viewBox="0 0 200 40"
   sodipodi:docname="logo-green-small-1x.svg"
   inkscape:version="1.4 (86a8ad7, 2024-10-11)"
   xmlns:inkscape="http://www.inkscape.org/namespaces/inkscape"
   xmlns:sodipodi="http://sodipodi.sourceforge.net/DTD/sodipodi-0.dtd"
   xmlns="http://www.w3.org/2000/svg"
   xmlns:svg="http://www.w3.org/2000/svg">
  <defs
     id="defs1">
    <rect
       x="86.31799"
       y="0"
       width="112.43635"
       height="39.814571"
       id="rect1" />
  </defs>
  <sodipodi:namedview
     id="namedview1"
     pagecolor="#ffffff"
     bordercolor="#000000"
     borderopacity="0.25"
     inkscape:showpageshadow="2"
     inkscape:pageopacity="0.0"
     inkscape:pagecheckerboard="0"
     inkscape:deskcolor="#d1d1d1"
     inkscape:zoom="3.1395541"
     inkscape:cx="88.069831"
     inkscape:cy="3.344424"
     inkscape:window-width="1920"
     inkscape:window-height="1057"
     inkscape:window-x="1042"
     inkscape:window-y="-8"
     inkscape:window-maximized="1"
     inkscape:current-layer="g1" />
  <g
     inkscape:groupmode="layer"
     inkscape:label="Image"
     id="g1">
    <g
       id="g115"
       transform="matrix(0.12014822,0,0,0.11634376,10.228646,2.1173408)">
      <path
         class="a"
         d="m 379.321,215.855 c -10.832,-0.007 -21.663,-0.507 -32.5,-0.229 -2.569,0.066 -2.579,4.066 0,4 10.833,-0.278 21.664,0.222 32.5,0.229 2.574,0 2.578,-4 0,-4 z"
         id="path1"
         style="fill:#211715" />
      <path
         class="a"
         d="m 415.507,202.039 c -18.3,-0.009 -36.607,-0.173 -54.905,-0.589 -2.575,-0.058 -2.574,3.942 0,4 18.3,0.416 36.6,0.58 54.905,0.589 2.574,0 2.578,-4 0,-4 z"
         id="path2"
         style="fill:#211715" />
      <path
         class="a"
         d="m 290.88,1.457 c -0.476,1.244 -0.971,2.481 -1.473,3.715 q -0.43,1.059 -0.872,2.112 c -0.1,0.228 0.2,-0.48 0.044,-0.1 l -0.089,0.21 c -0.072,0.169 -0.145,0.339 -0.218,0.508 q -0.2,0.465 -0.408,0.929 a 2.173,2.173 0 0 0 -0.2,1.541 2,2 0 0 0 3.655,0.478 c 1.222,-2.738 2.349,-5.525 3.419,-8.326 a 2.008,2.008 0 0 0 -1.4,-2.46 2.056,2.056 0 0 0 -2.46,1.4 z"
         id="path3"
         style="fill:#211715" />
      <path
         class="a"
         d="m 301.166,9.878 q -3.463,2.25 -7.041,4.319 a 2.0004048,2.0004048 0 1 0 2.019,3.454 q 3.576,-2.069 7.041,-4.319 a 2.0004048,2.0004048 0 1 0 -2.019,-3.454 z"
         id="path4"
         style="fill:#211715" />
      <path
         class="a"
         d="m 306.569,22.2 q -2.048,-0.105 -4.088,-0.3 -0.978,-0.093 -1.956,-0.207 -0.489,-0.057 -0.976,-0.119 c -0.056,-0.007 -0.673,-0.089 -0.385,-0.05 L 298.78,21.47 a 2.205,2.205 0 0 0 -1.541,0.2 2.043,2.043 0 0 0 -0.919,1.2 2.021,2.021 0 0 0 1.4,2.46 c 2.939,0.415 5.888,0.718 8.852,0.869 a 2.014,2.014 0 0 0 2,-2 2.045,2.045 0 0 0 -2,-2 z"
         id="path5"
         style="fill:#211715" />
      <path
         class="b"
         d="m 333.5,297.481 a 9.688,9.688 0 0 0 5.072,-8.316 c 0,-5.583 -2.741,-7.512 -3.757,-8.425 -2.145,-1.931 -6.5,-2.335 -9.208,-1.2 a 9.775,9.775 0 0 0 -5.613,-10.07 c -5.931,-2.5 -11.674,0.355 -13.215,3.719 -0.438,-4.887 -3.865,-11.49 -12.753,-11.612 -8.03,-0.11 -11.739,4.409 -12.8,7.8 0,0 -2.375,5.065 -2.747,6.07 a 10.394,10.394 0 0 0 -4.342,-0.6 10.513,10.513 0 0 0 -9.365,6.6 c -2.41,5.433 0.026,13.069 5.4,15.607 2.919,1.379 6.258,1.472 9.485,1.54 16.72,0.352 32.421,0.009 48.664,0.009 a 11.291,11.291 0 0 0 5.179,-1.122 z"
         id="path6"
         style="fill:#ffffff" />
      <path
         class="a"
         d="m 283.549,277.192 a 9.764,9.764 0 0 0 -5.38,-3.949 13.555,13.555 0 0 0 -7.546,0.213 13.077,13.077 0 0 0 -8.457,9.55 15.218,15.218 0 0 0 3.088,12.658 c 3.547,4.34 9.168,4.82 14.4,4.933 12.623,0.272 25.248,0.128 37.872,0.049 q 4.673,-0.03 9.346,-0.039 a 16.806,16.806 0 0 0 7.251,-1.214 11.393,11.393 0 0 0 6.063,-7.484 12.487,12.487 0 0 0 -2.685,-11.4 11.522,11.522 0 0 0 -12.426,-2.894 l 2.46,2.46 a 11.77,11.77 0 0 0 -7.66,-12.782 c -5.091,-1.818 -12.266,-0.327 -14.824,4.89 l 3.727,1.009 c -0.478,-4.863 -3.008,-9.533 -7.444,-11.858 a 17.21,17.21 0 0 0 -17.753,1.43 12.676,12.676 0 0 0 -4.287,6.087 c -0.8,2.453 3.064,3.5 3.858,1.063 a 8.374,8.374 0 0 1 1.254,-2.381 9.459,9.459 0 0 1 2.308,-2.118 13.625,13.625 0 0 1 9.037,-1.723 10.569,10.569 0 0 1 9.027,9.5 c 0.175,1.777 2.767,2.969 3.727,1.01 1.724,-3.517 6.461,-4.276 9.875,-3.2 3.2,1.01 5.841,4.551 5.3,8.006 -0.208,1.324 0.879,3.08 2.46,2.461 a 7.642,7.642 0 0 1 8.215,1.538 6.664,6.664 0 0 1 1.8,2.991 10.529,10.529 0 0 1 0.411,2.732 c 0.007,0.28 0,0.557 -0.007,0.836 0,0.1 -0.016,0.2 -0.024,0.293 -0.03,0.388 0.043,-0.24 0,0.025 a 7.535,7.535 0 0 1 -3.34,5.47 8.838,8.838 0 0 1 -4.5,1.246 c -2.684,0.073 -5.379,0.012 -8.064,0.026 -10.79,0.055 -21.581,0.188 -32.371,0.094 q -4.18,-0.036 -8.359,-0.12 a 28.486,28.486 0 0 1 -7.153,-0.718 9.506,9.506 0 0 1 -6.662,-7.476 9.814,9.814 0 0 1 3.361,-9.9 c 2.977,-2.276 8.278,-2.58 10.648,0.7 a 2.057,2.057 0 0 0 2.736,0.718 2.017,2.017 0 0 0 0.718,-2.737 z"
         id="path7"
         style="fill:#211715" />
      <path
         class="b"
         d="m 106.633,264.16 a 9.689,9.689 0 0 0 5.071,-8.316 c 0,-5.583 -2.741,-7.512 -3.756,-8.426 -2.145,-1.93 -6.5,-2.334 -9.208,-1.2 a 9.777,9.777 0 0 0 -5.613,-10.071 c -5.932,-2.5 -11.674,0.356 -13.215,3.72 -0.439,-4.887 -3.866,-11.49 -12.754,-11.612 -8.03,-0.11 -11.739,4.408 -12.8,7.8 0,0 -2.122,5.229 -2.463,6.191 a 10.052,10.052 0 0 0 -4.626,-0.72 10.513,10.513 0 0 0 -9.365,6.6 c -2.41,5.433 0.026,13.069 5.4,15.607 2.919,1.378 6.258,1.471 9.485,1.539 16.72,0.352 32.421,0.01 48.663,0.01 a 11.293,11.293 0 0 0 5.181,-1.122 z"
         id="path8"
         style="fill:#ffffff" />
      <path
         class="a"
         d="m 56.684,243.871 a 9.761,9.761 0 0 0 -5.379,-3.949 13.546,13.546 0 0 0 -7.546,0.213 13.077,13.077 0 0 0 -8.457,9.55 15.218,15.218 0 0 0 3.088,12.658 c 3.547,4.34 9.168,4.819 14.4,4.932 12.622,0.273 25.248,0.129 37.872,0.05 q 4.673,-0.03 9.345,-0.039 a 16.793,16.793 0 0 0 7.252,-1.215 11.391,11.391 0 0 0 6.063,-7.484 12.486,12.486 0 0 0 -2.685,-11.4 11.524,11.524 0 0 0 -12.426,-2.9 l 2.46,2.461 a 11.771,11.771 0 0 0 -7.66,-12.782 c -5.091,-1.818 -12.267,-0.328 -14.824,4.89 l 3.727,1.009 c -0.479,-4.863 -3.008,-9.533 -7.444,-11.859 a 17.212,17.212 0 0 0 -17.753,1.43 12.672,12.672 0 0 0 -4.287,6.087 c -0.8,2.454 3.063,3.5 3.857,1.064 a 8.425,8.425 0 0 1 1.254,-2.381 9.426,9.426 0 0 1 2.309,-2.118 13.626,13.626 0 0 1 9.037,-1.724 10.572,10.572 0 0 1 9.027,9.5 c 0.175,1.777 2.767,2.969 3.727,1.01 1.724,-3.518 6.461,-4.276 9.875,-3.2 3.2,1.01 5.841,4.551 5.3,8.006 -0.208,1.323 0.879,3.08 2.46,2.46 a 7.64,7.64 0 0 1 8.214,1.539 6.657,6.657 0 0 1 1.8,2.991 10.529,10.529 0 0 1 0.411,2.732 c 0.007,0.28 0,0.557 -0.007,0.836 0,0.1 -0.016,0.2 -0.024,0.293 -0.03,0.388 0.043,-0.241 0,0.024 a 7.53,7.53 0 0 1 -3.339,5.47 8.818,8.818 0 0 1 -4.5,1.246 c -2.684,0.074 -5.379,0.013 -8.064,0.027 -10.791,0.055 -21.581,0.188 -32.372,0.094 q -4.179,-0.036 -8.359,-0.121 a 28.436,28.436 0 0 1 -7.152,-0.717 9.506,9.506 0 0 1 -6.662,-7.476 9.812,9.812 0 0 1 3.361,-9.9 c 2.977,-2.276 8.277,-2.58 10.648,0.7 a 2.057,2.057 0 0 0 2.736,0.717 2.015,2.015 0 0 0 0.717,-2.736 z"
         id="path9"
         style="fill:#211715" />
      <path
         class="b"
         d="m 388.074,116.275 c 3.27,-9.431 5.912,-17.289 5.624,-17.557 a 1.5,1.5 0 0 0 -1.048,-0.422 c -6.021,0.274 -11.63,1.121 -16.234,3.45 -4.604,2.329 -7.373,4.844 -11.222,8.3 a 285.369,285.369 0 0 0 -26.93,28.412 l -1.055,1.285 c 15.152,-0.17 30.764,-0.323 42.839,-0.444 2.252,-6.529 5.352,-15.299 8.026,-23.024 z"
         id="path10"
         style="fill:#ffffff" />
      <path
         class="b"
         d="m 314.915,140.012 c 29.036,-0.391 69.377,-0.738 82.523,-0.9 4.354,-0.055 10.251,0.225 11.481,4.1 1.692,5.334 -4.308,8.883 -8.912,10.469 l -80.242,27.645 c -7.435,2.561 -14.907,5.132 -22.571,6.3 -8.041,1.226 -25.049,2.542 -33.138,2.854 -16.388,0.633 -147.315,4.34 -214.1,2.276 -11.344,-0.849 -23.211,-3.052 -32.4,-7.894 -3.765,-1.984 -7.151,-5.511 -7.476,-9.9 -0.325,-4.389 2.27,-7.59 5.266,-10.195 9.417,-8.186 19.067,-16.514 30.178,-20.579 9.018,-3.3 18.556,-3.622 27.958,-3.918 7.69,-0.243 14.049,-0.489 20.84,-0.684 z"
         id="path11"
         style="fill:#ffffff" />
      <path
         class="c"
         d="m 49.119,166.67 c -0.246,-0.065 -0.491,-0.13 -0.736,-0.2 -7.9,-2.149 -15.939,-5.172 -21.169,-11.609 a 85.424,85.424 0 0 1 11.231,-7.454 c 2.076,2.955 5.5,4.621 8.956,5.606 3.343,0.95 6.385,1.59 9.728,2.56 1,0.287 3.152,0.62 3.944,1.288 1.223,1.036 1.074,1.4 1.1,2.986 0.026,1.586 -0.421,5.952 -1.2,7.1 a 2.355,2.355 0 0 1 -1.867,1.006 c -3.077,0.324 -6.551,-0.376 -9.987,-1.283 z"
         id="path12"
         style="fill:#87cce3" />
      <path
         class="a"
         d="m 314.915,142.012 q 32.219,-0.432 64.439,-0.709 6.072,-0.061 12.144,-0.125 a 94.453,94.453 0 0 1 10.055,0.056 c 1.769,0.171 4.5,0.517 5.364,2.345 0.98,2.068 -0.519,4.1 -2.069,5.352 a 19.887,19.887 0 0 1 -6.122,3.078 q -5.059,1.751 -10.124,3.488 l -40.121,13.822 c -13.088,4.509 -26.112,9.4 -39.358,13.422 -10.247,3.116 -20.737,4.06 -31.365,4.885 -5.736,0.446 -11.475,0.786 -17.224,0.978 -10.346,0.345 -20.695,0.618 -31.043,0.88 q -24.831,0.628 -49.667,1.075 -28.877,0.519 -57.756,0.737 c -18.15,0.12 -36.3,0.136 -54.453,-0.145 -8.977,-0.138 -18.008,-0.061 -26.9,-1.414 A 80.623,80.623 0 0 1 23.1,185.22 c -4.751,-1.884 -10.982,-4.961 -11.042,-10.91 -0.029,-2.86 1.634,-5.209 3.609,-7.124 2.21,-2.144 4.647,-4.1 7,-6.084 a 108.645,108.645 0 0 1 15.052,-10.986 52.825,52.825 0 0 1 17.75,-6.462 c 6.714,-1.162 13.568,-1.241 20.361,-1.463 6.164,-0.2 12.328,-0.429 18.494,-0.608 2.568,-0.075 2.579,-4.075 0,-4 -6.684,0.194 -13.366,0.445 -20.049,0.659 -6.889,0.22 -13.807,0.43 -20.6,1.686 -12.991,2.4 -23.629,9.779 -33.564,18.118 -4.232,3.553 -9.757,7.221 -11.527,12.738 -1.77,5.517 1.116,10.926 5.487,14.216 4.7,3.541 11.025,5.421 16.66,6.828 a 102.357,102.357 0 0 0 19.225,2.923 c 17.555,0.923 35.254,0.635 52.826,0.617 q 30.185,-0.03 60.367,-0.536 27.654,-0.422 55.3,-1.082 18.92,-0.447 37.836,-1.014 a 370.287,370.287 0 0 0 40.469,-3.045 109.334,109.334 0 0 0 19.577,-5.086 c 6.958,-2.352 13.891,-4.777 20.835,-7.17 L 378.791,163.1 q 10.5,-3.617 21,-7.234 c 4.207,-1.456 9.151,-3.662 10.887,-8.116 1.842,-4.724 -1.247,-8.819 -5.8,-9.99 -3.74,-0.963 -7.735,-0.645 -11.562,-0.6 -20.692,0.229 -41.384,0.409 -62.076,0.651 q -8.163,0.095 -16.327,0.2 c -2.572,0.035 -2.579,4.035 0,4 z"
         id="path13"
         style="fill:#211715" />
      <path
         class="a"
         d="m 37.873,149.885 c 3.5,3.706 8.406,4.962 13.176,6.16 2.32,0.583 4.622,1.237 6.947,1.8 a 6.38,6.38 0 0 1 1.921,0.663 c 0.351,0.216 0.182,0.077 0.251,0.273 -0.086,-0.242 -0.008,0.08 0,0.144 0.02,0.3 0.008,0.623 0.008,0.927 a 22.5,22.5 0 0 1 -0.463,4.572 c -0.075,0.359 -0.159,0.717 -0.266,1.068 -0.063,0.2 0.036,0.251 -0.2,0.455 0.251,-0.22 -0.086,0 -0.282,0.026 a 12.276,12.276 0 0 1 -1.974,0.058 c -4.746,-0.133 -9.644,-1.762 -14.089,-3.339 a 33.253,33.253 0 0 1 -12.967,-7.76 c -1.8,-1.847 -4.626,0.982 -2.828,2.829 a 36.535,36.535 0 0 0 13.4,8.3 c 5.048,1.93 10.631,3.679 16.053,3.955 2.319,0.119 5.009,0 6.271,-2.271 0.95,-1.708 1.083,-4 1.251,-5.9 0.146,-1.64 0.391,-3.694 -0.494,-5.164 -1.175,-1.952 -3.393,-2.4 -5.431,-2.9 -3.253,-0.8 -6.517,-1.652 -9.745,-2.553 a 16.143,16.143 0 0 1 -7.707,-4.164 c -1.77,-1.877 -4.595,0.956 -2.828,2.828 z"
         id="path14"
         style="fill:#211715" />
      <path
         class="a"
         d="m 50.822,154.459 a 63.77,63.77 0 0 0 -3.871,10.087 2.0004011,2.0004011 0 1 0 3.857,1.063 39.039,39.039 0 0 1 1.615,-4.883 q 0.109,-0.273 0.222,-0.545 c 0.042,-0.1 0.085,-0.207 0.129,-0.31 q -0.14,0.33 -0.006,0.015 0.233,-0.54 0.469,-1.078 c 0.343,-0.778 0.693,-1.553 1.039,-2.33 a 2.052,2.052 0 0 0 -0.717,-2.737 2.024,2.024 0 0 0 -2.737,0.718 z"
         id="path15"
         style="fill:#211715" />
      <path
         class="a"
         d="m 38.3,162.742 c 1.3,-1.553 2.618,-3.09 4.037,-4.535 0.672,-0.683 1.365,-1.345 2.085,-1.978 q 0.576,-0.507 1.175,-0.988 c 0.1,-0.078 0.193,-0.154 0.29,-0.231 0.3,-0.235 -0.189,0.14 0.009,-0.008 0.223,-0.166 0.444,-0.334 0.669,-0.5 a 2.169,2.169 0 0 0 0.919,-1.2 2.043,2.043 0 0 0 -0.2,-1.541 2.022,2.022 0 0 0 -2.736,-0.717 51.5,51.5 0 0 0 -9.074,8.862 2.044,2.044 0 0 0 0,2.829 2.024,2.024 0 0 0 2.828,0 z"
         id="path16"
         style="fill:#211715" />
      <path
         class="b"
         d="m 188.142,195.247 -3.452,-0.717 c -0.254,3.123 -0.509,6.27 -0.765,9.387 -0.04,0.456 -0.081,0.919 -0.16,1.371 a 9.679,9.679 0 0 0 5.284,-2.6 11.944,11.944 0 0 0 2.9,-6.648 z"
         id="path17"
         style="fill:#ffffff" />
      <path
         class="b"
         d="m 180.72,208.652 -0.2,0.076 c -6.227,2.355 -12.853,3.429 -19.43,4.493 a 30.806,30.806 0 0 1 -8.188,0.271 c -4.082,-0.435 -6.945,-0.727 -10.518,-3.052 a 6.85,6.85 0 0 1 -2.4,-2.982 c -1.451,-2.639 -1.638,-5.693 -1.675,-8.3 -0.03,-2.155 -0.11,-7.033 2.045,-10.05 a 4.819,4.819 0 0 1 4.171,-2.265 l 3.727,0.139 c 12.021,2.476 24.208,5 36.448,7.545 -0.256,3.123 -0.511,6.27 -0.767,9.387 a 13.99,13.99 0 0 1 -0.2,1.595 3.913,3.913 0 0 1 -0.779,1.749 5.039,5.039 0 0 1 -2.234,1.394 z"
         id="path18"
         style="fill:#ffffff" />
      <path
         class="b"
         d="m 141.505,187.861 a 6.31,6.31 0 0 0 -1.159,1.25 c -2.155,3.017 -2.075,7.9 -2.045,10.05 0.037,2.6 0.224,5.658 1.675,8.3 a 6.85,6.85 0 0 0 2.4,2.982 c 0.432,0.281 0.854,0.532 1.269,0.758 a 4.519,4.519 0 0 0 2.9,0.108 c 1.838,-0.617 2.825,-3.207 3.089,-4.184 a 22.9,22.9 0 0 0 0.879,-6.5 25.329,25.329 0 0 0 -0.8,-7.677 c -0.44,-1.569 -1.62,-5.13 -4.417,-5.9 l -0.735,-0.2 h -0.047 a 4.416,4.416 0 0 0 -3.009,1.013 z"
         id="path19"
         style="fill:#ffffff" />
      <path
         class="a"
         d="m 182.556,196.19 c -0.23,2.814 -0.247,5.744 -0.71,8.528 a 2.228,2.228 0 0 1 -1.523,1.953 34.284,34.284 0 0 1 -3.852,1.318 110.119,110.119 0 0 1 -16.4,3.378 33.2,33.2 0 0 1 -8.4,-0.008 20.423,20.423 0 0 1 -5.962,-1.366 9.677,9.677 0 0 1 -2.84,-1.718 7.291,7.291 0 0 1 -1.262,-2.017 15.753,15.753 0 0 1 -1.3,-6.91 24.97,24.97 0 0 1 0.407,-5.944 c 0.443,-1.972 1.42,-4.551 3.805,-4.558 2.573,-0.007 2.578,-4.007 0,-4 -6.212,0.018 -8.015,6.926 -8.2,11.953 -0.178,4.777 0.114,10.7 3.722,14.3 a 15.466,15.466 0 0 0 7.4,3.623 38.883,38.883 0 0 0 9.324,0.911 68.987,68.987 0 0 0 9.905,-1.327 98.347,98.347 0 0 0 9.754,-2.139 c 2.957,-0.835 7.288,-1.657 8.741,-4.723 a 14.91,14.91 0 0 0 0.9,-5.217 q 0.248,-3.021 0.493,-6.041 c 0.209,-2.565 -3.792,-2.552 -4,0 z"
         id="path20"
         style="fill:#211715" />
      <path
         class="b"
         d="m 134.06,184.07 c -6.351,-2.275 -7.38,-6.7 -6.816,-9.548 1.25,-3.585 6.932,-4.218 10.985,-4.325 25.835,-0.682 59.874,0.963 84.484,3.145 1.5,0.133 4.733,0.858 9.9,3.331 15.838,7.357 23.029,9.727 40.964,16.971 10.357,4.183 19.551,9.515 30.717,9.226 2.456,-0.063 5.033,-0.43 7.279,0.566 2.246,0.996 3.769,4.088 2.181,5.963 -12.9,8.43 -29.827,5.649 -44.927,2.555 -43.953,-9 -90.817,-18.88 -134.77,-27.884"
         id="path21"
         style="fill:#ffffff" />
      <path
         class="a"
         d="m 134.592,182.142 c -2.278,-0.847 -4.58,-2.381 -5.262,-4.73 a 5.121,5.121 0 0 1 -0.182,-2.25 3.674,3.674 0 0 1 1.961,-1.781 c 2.419,-1.1 5.272,-1.139 7.878,-1.2 q 5.221,-0.129 10.445,-0.135 c 15.024,-0.038 30.051,0.475 45.05,1.3 q 10.779,0.592 21.542,1.439 2.438,0.193 4.872,0.4 c 0.673,0.058 1.349,0.107 2.021,0.18 0.058,0.006 -0.3,-0.057 0.1,0.019 0.258,0.049 0.516,0.095 0.773,0.151 a 41.287,41.287 0 0 1 8.419,3.147 c 11.89,5.5 24.092,10.2 36.255,15.053 7.154,2.854 14.128,6.322 21.438,8.759 a 45.308,45.308 0 0 0 11.1,2.3 54.459,54.459 0 0 0 5.7,-0.024 c 1.558,-0.05 3.563,-0.146 4.8,0.993 a 1.9,1.9 0 0 1 0.53,2.627 l 0.718,-0.718 c -8.952,5.764 -19.832,5.942 -30.076,4.678 -5.4,-0.667 -10.735,-1.795 -16.062,-2.888 q -9.022,-1.851 -18.043,-3.714 -36.644,-7.566 -73.271,-15.207 -20.347,-4.221 -40.7,-8.4 c -2.513,-0.515 -3.587,3.34 -1.063,3.857 q 45.286,9.278 90.533,18.752 22.311,4.63 44.634,9.213 c 12.55,2.558 26.39,5.11 38.833,0.695 a 36.349,36.349 0 0 0 4.464,-1.92 c 1.374,-0.707 3.054,-1.446 3.836,-2.845 1.516,-2.712 -0.086,-6.047 -2.407,-7.7 -2.889,-2.053 -6.715,-1.315 -10.014,-1.316 a 36.8,36.8 0 0 1 -10.018,-1.5 c -6.822,-1.932 -13.181,-5.207 -19.736,-7.853 -5.934,-2.4 -11.9,-4.718 -17.847,-7.077 -5.059,-2 -10.091,-4.072 -15.067,-6.276 -3.084,-1.366 -6.118,-2.847 -9.212,-4.188 a 34.149,34.149 0 0 0 -7.173,-2.417 72.584,72.584 0 0 0 -7.568,-0.731 q -4.712,-0.38 -9.426,-0.7 -10.072,-0.695 -20.158,-1.169 c -13.586,-0.641 -27.193,-1.023 -40.8,-0.911 -3.029,0.025 -6.067,0.03 -9.092,0.171 a 21.886,21.886 0 0 0 -7.953,1.573 6.629,6.629 0 0 0 -4.226,5.478 9.259,9.259 0 0 0 1.538,5.794 13.654,13.654 0 0 0 6.853,4.929 c 2.416,0.9 3.459,-2.966 1.063,-3.857 z"
         id="path22"
         style="fill:#211715" />
      <path
         class="a"
         d="m 144.768,188.979 c 1.554,0.49 2.326,2.326 2.792,3.752 a 22,22 0 0 1 0.957,6.786 21.291,21.291 0 0 1 -1.015,7.717 4.213,4.213 0 0 1 -1.366,2.079 1.908,1.908 0 0 1 -1.179,0.171 3.9,3.9 0 0 1 -0.851,-0.241 c -0.125,-0.049 -0.422,-0.29 -0.123,-0.037 -1.953,-1.654 -4.8,1.162 -2.828,2.829 a 6.076,6.076 0 0 0 8.926,-1.178 c 1.891,-2.674 2.346,-6.393 2.425,-9.573 0.135,-5.378 -0.405,-14.188 -6.675,-16.162 -2.461,-0.775 -3.514,3.086 -1.063,3.857 z"
         id="path23"
         style="fill:#211715" />
      <path
         class="a"
         d="m 185.04,207.072 a 10.874,10.874 0 0 0 5.5,-3.062 14.019,14.019 0 0 0 3.156,-6.283 2.000534,2.000534 0 0 0 -3.857,-1.064 12.561,12.561 0 0 1 -0.41,1.5 c -0.079,0.229 -0.187,0.452 -0.258,0.682 l 0.1,-0.236 c -0.035,0.08 -0.071,0.159 -0.107,0.238 -0.046,0.1 -0.093,0.2 -0.141,0.293 a 12.08,12.08 0 0 1 -0.731,1.268 c -0.115,0.173 -0.237,0.34 -0.358,0.508 -0.24,0.338 0.257,-0.31 0.012,-0.017 -0.077,0.093 -0.154,0.187 -0.233,0.278 a 6.178,6.178 0 0 1 -0.676,0.648 c -0.281,0.238 0.412,-0.293 0.093,-0.074 -0.072,0.049 -0.142,0.1 -0.215,0.151 -0.169,0.116 -0.343,0.227 -0.52,0.332 q -0.312,0.186 -0.638,0.349 c -0.083,0.042 -0.5,0.307 -0.58,0.272 0.276,-0.116 0.312,-0.133 0.11,-0.052 l -0.126,0.048 q -0.191,0.071 -0.384,0.135 c -0.264,0.086 -0.532,0.16 -0.8,0.225 a 2.019,2.019 0 0 0 -1.4,2.461 2.041,2.041 0 0 0 2.46,1.4 z"
         id="path24"
         style="fill:#211715" />
      <path
         class="a"
         d="m 339.678,139.869 c 5.738,-6.984 11.852,-13.674 18.221,-20.087 q 4.63,-4.66 9.518,-9.05 a 45.071,45.071 0 0 1 10.364,-7.435 28.21,28.21 0 0 1 6.963,-2.159 c 1.336,-0.256 2.681,-0.439 4.034,-0.572 0.949,-0.092 3.249,-0.605 3.91,-0.121 l -0.717,-0.717 c -0.087,-0.119 -0.255,-0.944 -0.254,-0.857 0,0.229 0.167,-0.592 0.037,-0.291 a 5.215,5.215 0 0 0 -0.171,0.731 c -0.191,0.733 -0.416,1.458 -0.641,2.181 -0.743,2.388 -1.545,4.758 -2.348,7.126 -2.218,6.532 -4.508,13.039 -6.787,19.55 q -1.856,5.3 -3.7,10.606 c -0.844,2.438 3.019,3.485 3.857,1.063 2.425,-7.012 4.9,-14.009 7.336,-21.017 1.981,-5.693 4.04,-11.379 5.77,-17.156 0.465,-1.553 1.273,-3.524 -0.365,-4.673 a 4.955,4.955 0 0 0 -3.439,-0.621 c -1.276,0.078 -2.551,0.188 -3.821,0.341 a 43.609,43.609 0 0 0 -7.243,1.41 c -8.74,2.607 -15.482,9.4 -21.862,15.6 a 282.557,282.557 0 0 0 -21.493,23.322 c -1.621,1.974 1.193,4.82 2.829,2.829 z"
         id="path25"
         style="fill:#211715" />
      <path
         class="b"
         d="m 385.591,152.29 c 8.176,5.46 13.091,9.965 19.777,14.221 a 5.009,5.009 0 0 1 1.391,0.984 2.668,2.668 0 0 1 -0.249,3.165 c -1.816,2.329 -5.4,1.915 -8.262,1.2 -13.82,-3.471 -36.673,-12.427 -49.11,-19.382"
         id="path26"
         style="fill:#ffffff" />
      <path
         class="a"
         d="m 384.581,154.017 c 5.343,3.581 10.335,7.624 15.562,11.364 1.164,0.832 2.343,1.643 3.542,2.423 q 0.481,0.314 0.97,0.611 c 0.205,0.124 0.6,0.585 0.485,0.2 a 1.14,1.14 0 0 1 -0.494,1.121 c -1.671,1.483 -4.855,0.458 -6.717,-0.027 a 224.382,224.382 0 0 1 -31.658,-11.215 172.926,172.926 0 0 1 -16.123,-7.747 c -2.251,-1.254 -4.271,2.2 -2.019,3.454 10.806,6.02 22.486,10.681 34.133,14.794 a 126.408,126.408 0 0 0 16.471,5.022 c 2.977,0.61 6.542,0.762 8.858,-1.569 a 5.111,5.111 0 0 0 1.483,-4.574 c -0.388,-1.779 -1.8,-2.509 -3.2,-3.415 -6.654,-4.3 -12.69,-9.484 -19.272,-13.9 -2.144,-1.438 -4.149,2.026 -2.019,3.454 z"
         id="path27"
         style="fill:#211715" />
      <path
         class="b"
         d="m 232.788,90.862 a 8.734,8.734 0 0 1 -4.609,1.5 l -0.164,0.006 c 0.771,1.574 5.5,14.039 8.046,19.611 a 1.994,1.994 0 0 0 3.068,0.724 199.924,199.924 0 0 0 15.3,-14.228 l -1,-1.184 c -0.142,-0.167 -0.283,-0.344 -0.425,-0.521 a 6.343,6.343 0 0 1 -1.418,-2.474 6.1,6.1 0 0 1 -0.083,-1.546 q 0.105,-2.927 0.2,-5.86 a 21.315,21.315 0 0 1 -3.417,0.564 33.2,33.2 0 0 1 -6.278,-0.19 37.285,37.285 0 0 1 -5.011,-1.17 25.081,25.081 0 0 1 -4.2,4.764"
         id="path28"
         style="fill:#ffffff" />
      <path
         class="d"
         d="m 265.762,76.51 a 30.9,30.9 0 0 0 2.565,-4.453 l 0.462,0.037 a 6.42,6.42 0 0 0 2.868,-0.334 6.7,6.7 0 0 1 2.643,3.54 11.4,11.4 0 0 1 -0.219,5.948 23.124,23.124 0 0 1 -3.494,7.474 31.681,31.681 0 0 0 -2.533,3.685 c -0.682,1.327 -1.39,3.39 -0.893,4.8 0.418,1.185 1.269,2.46 0.86,3.031 l -1.934,2.163 a 57.5,57.5 0 0 0 -10.278,-4.78 c -1.017,1.389 -1.908,0.271 -2.8,-0.847 a 6.343,6.343 0 0 1 -1.418,-2.474 6.1,6.1 0 0 1 -0.083,-1.546 q 0.105,-2.927 0.2,-5.86 a 22.529,22.529 0 0 0 9.855,-5.546 29.181,29.181 0 0 0 4.199,-4.838 z"
         id="path29"
         style="fill:#b5886a" />
      <path
         class="e"
         d="m 234.473,108.32 c -2.606,-6.224 -5.935,-14.941 -6.491,-16.012 -5.476,0.086 -11.782,0.257 -17.524,1.927 -2,0.582 -3.942,1.359 -5.878,2.134 l -7.78,3.119 v 54.628 c 3.409,-0.005 6.044,-0.015 7.381,-0.032 l 26.631,-0.765 c 9.42,-0.191 18.662,-0.389 28.008,-0.46 0.633,-4.365 1.865,-11.413 2.745,-16.577 7.342,9.1 14.431,15.518 25.037,20.314 a 13.253,13.253 0 0 0 6.319,0.923 11.632,11.632 0 0 0 5.132,-3.029 c 5.915,-6.748 8.638,-14.86 9.762,-22.658 a 1.3,1.3 0 0 0 -0.988,-1.437 c -6.682,-1.637 -12.9,-3.487 -19.459,-5.523 a 1.447,1.447 0 0 0 -1.779,0.872 c -0.172,0.454 -0.34,0.871 -0.5,1.267 -4.036,-3.46 -10.6,-16.707 -14.946,-21.766 -3.872,-3.271 -10.169,-6.229 -14.733,-7.763 a 203.9,203.9 0 0 1 -16.272,15.225 1.994,1.994 0 0 1 -3.068,-0.724 c -0.477,-1.025 -1.02,-2.283 -1.597,-3.663 z"
         id="path30"
         style="fill:#f4b3b3" />
      <path
         class="a"
         d="m 249.721,86.206 c -0.07,2.215 -0.156,4.43 -0.22,6.645 a 6.7,6.7 0 0 0 0.7,3.377 14.189,14.189 0 0 0 1.814,2.482 2.009,2.009 0 0 0 2.829,0 2.055,2.055 0 0 0 0,-2.829 c -0.144,-0.172 -0.285,-0.346 -0.425,-0.522 -0.02,-0.025 -0.362,-0.493 -0.13,-0.166 a 8.922,8.922 0 0 1 -0.676,-1.063 c 0.186,0.358 -0.027,-0.089 -0.055,-0.187 -0.032,-0.121 -0.059,-0.242 -0.08,-0.365 q 0.049,0.316 0.018,-0.046 c 0.021,-0.439 0.012,-0.883 0.027,-1.323 q 0.107,-3 0.2,-6 a 2.018,2.018 0 0 0 -2,-2 2.04,2.04 0 0 0 -2,2 z"
         id="path31"
         style="fill:#211715" />
      <path
         class="a"
         d="m 271.4,74.155 c 1.537,1.79 1.345,4.178 0.805,6.338 a 21.453,21.453 0 0 1 -3.224,7.042 c -1.42,2.044 -2.976,3.893 -3.654,6.345 a 7.224,7.224 0 0 0 -0.215,3.383 c 0.182,0.858 1.068,1.954 0.992,2.783 l 0.273,-1.009 -0.087,0.192 a 2.061,2.061 0 0 0 0.718,2.736 2.015,2.015 0 0 0 2.736,-0.718 4.1,4.1 0 0 0 -0.259,-3.635 3.623,3.623 0 0 1 -0.191,-3.031 c 0.841,-2.642 3.084,-4.662 4.407,-7.066 2.7,-4.9 4.541,-11.516 0.527,-16.189 -1.68,-1.956 -4.5,0.885 -2.828,2.829 z"
         id="path32"
         style="fill:#211715" />
      <path
         class="a"
         d="m 228.179,94.366 a 11.567,11.567 0 0 0 2.953,-0.5 8.758,8.758 0 0 0 2.666,-1.277 2.2,2.2 0 0 0 0.919,-1.195 2.042,2.042 0 0 0 -0.2,-1.541 2.018,2.018 0 0 0 -1.195,-0.92 1.939,1.939 0 0 0 -1.541,0.2 6.529,6.529 0 0 1 -1.391,0.785 l 0.477,-0.2 a 9.748,9.748 0 0 1 -2.4,0.648 L 229,90.3 c -0.271,0.035 -0.543,0.06 -0.816,0.071 a 2.1,2.1 0 0 0 -1.414,0.586 2,2 0 0 0 1.414,3.414 z"
         id="path33"
         style="fill:#211715" />
      <path
         class="b"
         d="m 303.761,122.489 c -0.308,-5.408 -0.72,-12.012 -0.813,-15.728 0,0 -0.009,-0.365 -0.014,-0.88 3.241,-4 4.012,-9.354 3.48,-13.548 -0.415,-3.267 -0.592,-6.884 -3.042,-9.084 -1.351,-1.213 -4.132,-1.589 -5.539,-0.442 -0.924,-1.381 -3.272,-2.162 -4.531,-2.218 -1.222,-0.056 -2.236,0.849 -3.174,1.691 -1.037,-1.25 -4.613,-1.481 -6.1,-0.833 -1.487,0.648 -2.512,3.34 -2.306,4.951 l -0.05,0.6 a 6.18,6.18 0 0 0 -1.311,0.594 c -1.717,1.018 -2.576,3.025 -3.061,4.96 a 14.019,14.019 0 0 0 0.676,9.757 c 2.189,4.258 6.986,6.37 11.425,8.165 a 61.445,61.445 0 0 1 -1.239,13.557 l -0.195,1.029 c 5.455,1.689 10.684,3.247 16.161,4.66 -0.045,-0.993 -0.076,-1.664 -0.076,-1.664 -0.066,-1.51 -0.171,-3.446 -0.291,-5.567 z"
         id="path34"
         style="fill:#ffffff" />
      <path
         class="a"
         d="m 290.088,124.56 a 76.466,76.466 0 0 0 1.31,-14.089 2.075,2.075 0 0 0 -1.468,-1.928 c -2.952,-1.2 -6.091,-2.5 -8.395,-4.768 -2.6,-2.565 -3.217,-6.173 -2.536,-9.674 0.292,-1.5 0.7,-3.354 1.895,-4.428 a 4.632,4.632 0 0 1 4.092,-0.778 c 0.648,0.115 0.857,0.173 1.156,0.781 a 1.611,1.611 0 0 1 0.194,1.274 c -0.426,1.154 -2.087,1.307 -3.1,1.266 -2.574,-0.1 -2.57,3.9 0,4 3.472,0.138 7.438,-2.078 7.142,-6.014 a 5.678,5.678 0 0 0 -3.187,-4.831 10.019,10.019 0 0 0 -5.458,-0.448 c -4.278,0.843 -6.137,5.044 -6.73,8.942 -0.655,4.305 0.092,8.576 2.972,11.951 2.8,3.284 7,5 10.894,6.584 l -1.468,-1.929 a 70.486,70.486 0 0 1 -1.167,13.025 c -0.473,2.516 3.382,3.595 3.857,1.064 z"
         id="path35"
         style="fill:#211715" />
      <path
         class="a"
         d="m 283.719,86.4 c -0.094,-1.1 0.328,-2.89 1.394,-3.2 0.975,-0.285 2.962,-0.175 3.6,0.5 a 2.038,2.038 0 0 0 2.828,0 c 0.713,-0.636 1.312,-1.23 2.265,-1.018 a 4.132,4.132 0 0 1 2.3,1.14 2.029,2.029 0 0 0 2.736,0.718 c 1.648,-1.191 3.522,0.16 4.294,1.691 0.989,1.959 1.117,4.436 1.332,6.586 0.463,4.624 -0.682,9.458 -4.014,12.829 -1.812,1.833 1.015,4.663 2.828,2.828 4.634,-4.689 5.733,-11.1 4.977,-17.42 -0.376,-3.141 -0.829,-6.425 -3.088,-8.832 -2,-2.129 -5.88,-2.919 -8.348,-1.136 l 2.736,0.717 a 8.083,8.083 0 0 0 -4.971,-3.04 c -2.405,-0.469 -4.121,0.542 -5.874,2.109 h 2.828 c -1.787,-1.882 -5.358,-2.172 -7.729,-1.462 -2.757,0.826 -4.326,4.28 -4.094,6.994 0.219,2.546 4.221,2.569 4,0 z"
         id="path36"
         style="fill:#211715" />
      <path
         class="a"
         d="m 300.948,106.761 c 0.185,7.1 0.8,14.192 1.1,21.292 0.109,2.564 4.11,2.578 4,0 -0.3,-7.1 -0.916,-14.188 -1.1,-21.292 -0.067,-2.569 -4.067,-2.579 -4,0 z"
         id="path37"
         style="fill:#211715" />
      <path
         class="a"
         d="m 260.4,138.01 a 77.344,77.344 0 0 0 15,14.5 60.176,60.176 0 0 0 9.069,5.29 c 2.857,1.355 6.481,2.47 9.632,1.479 3.372,-1.06 5.7,-3.564 7.718,-6.329 a 41.515,41.515 0 0 0 5.283,-10 50.489,50.489 0 0 0 2.613,-10.393 3.5,3.5 0 0 0 -2.833,-4.206 c -2.025,-0.536 -4.059,-1.034 -6.079,-1.59 q -3.57,-0.981 -7.115,-2.048 -1.731,-0.517 -3.458,-1.048 a 11.763,11.763 0 0 0 -3.331,-0.847 c -2.358,0.017 -3.038,2.009 -3.813,3.822 -0.781,1.829 -1.594,3.634 -2.249,5.513 -0.85,2.435 3.013,3.482 3.857,1.063 0.447,-1.282 0.958,-2.531 1.5,-3.774 0.3,-0.691 0.6,-1.383 0.891,-2.081 0.023,-0.057 0.316,-0.7 0.258,-0.725 q -0.884,0.124 -0.277,0.239 l 0.7,0.217 c 3.517,1.087 7.042,2.149 10.587,3.143 q 2.542,0.712 5.1,1.376 c 0.241,0.062 2.81,0.78 2.837,0.714 l -0.465,-0.639 c -0.039,0.256 -0.079,0.513 -0.121,0.769 q -0.1,0.579 -0.2,1.156 a 49.01,49.01 0 0 1 -2.479,8.846 37.492,37.492 0 0 1 -4.536,8.3 c -1.429,1.982 -3.31,4.254 -5.856,4.782 -2.609,0.541 -5.352,-0.768 -7.606,-1.906 a 59.424,59.424 0 0 1 -7.612,-4.577 73.934,73.934 0 0 1 -14.186,-13.877 2.013,2.013 0 0 0 -2.828,0 2.046,2.046 0 0 0 0,2.829 z"
         id="path38"
         style="fill:#211715" />
      <path
         class="a"
         d="M 227.982,90.308 A 79.022,79.022 0 0 0 212.324,91.7 c -5.545,1.214 -10.811,3.757 -16.061,5.86 a 2.063,2.063 0 0 0 -1.4,2.461 2.014,2.014 0 0 0 2.461,1.4 c 5.111,-2.047 10.238,-4.518 15.62,-5.761 a 71.765,71.765 0 0 1 15.035,-1.347 c 2.572,-0.042 2.58,-4.042 0,-4 z"
         id="path39"
         style="fill:#211715" />
      <path
         class="a"
         d="m 295.587,83.273 a 40.536,40.536 0 0 0 -1.279,5.165 c -0.313,1.8 -0.744,4 -0.182,5.793 a 4.552,4.552 0 0 0 4.705,3.293 4.43,4.43 0 0 0 2.741,-1.036 5.185,5.185 0 0 0 1.533,-2.547 2.0004011,2.0004011 0 0 0 -3.857,-1.063 c -0.025,0.087 -0.24,0.54 -0.052,0.21 -0.069,0.121 -0.146,0.241 -0.212,0.364 q -0.124,0.183 0.073,-0.092 a 1.927,1.927 0 0 1 -0.154,0.159 c -0.195,0.14 0.35,-0.146 0.03,-0.021 -0.4,0.157 0.459,-0.085 0.044,-0.013 -0.08,0.014 -0.414,0.149 -0.126,0.043 0.288,-0.106 -0.071,0 -0.171,0 -0.155,0 -0.306,-0.013 -0.461,-0.016 0.474,0.01 0.071,-0.014 -0.066,-0.041 -0.36,-0.07 0.207,0.109 0.02,0.006 -0.142,-0.079 0.218,0.241 -0.023,-0.036 -0.356,-0.408 0.176,0.321 -0.1,-0.136 -0.188,-0.312 0.008,0.153 -0.042,-0.06 -0.013,-0.056 -0.161,-0.576 -0.1,-0.318 0.061,0.258 -0.01,-0.2 -0.012,-0.259 0,-0.172 0,-0.345 0,-0.517 a 18.078,18.078 0 0 1 0.163,-2.026 c -0.039,0.294 0,-0.008 0.026,-0.142 0.025,-0.162 0.052,-0.324 0.08,-0.485 q 0.1,-0.585 0.225,-1.167 c 0.284,-1.349 0.642,-2.682 1.054,-4 a 2.017,2.017 0 0 0 -1.4,-2.46 2.042,2.042 0 0 0 -2.46,1.4 z"
         id="path40"
         style="fill:#211715" />
      <path
         class="a"
         d="m 288.22,81.973 a 28.362,28.362 0 0 0 -1.527,6.318 c -0.255,1.929 -0.7,4.233 0.041,6.09 a 5.836,5.836 0 0 0 1.911,2.7 5.33,5.33 0 0 0 2.714,0.88 5.245,5.245 0 0 0 4.918,-2.9 2.065,2.065 0 0 0 -0.717,-2.736 2.015,2.015 0 0 0 -2.737,0.717 3.026,3.026 0 0 1 -0.211,0.408 q -0.113,0.171 0.024,-0.03 l -0.135,0.139 c -0.458,0.4 0.159,-0.079 -0.13,0.115 -0.135,0.091 -0.277,0.169 -0.419,0.248 -0.194,0.094 -0.23,0.11 -0.106,0.05 0.109,-0.05 0.087,-0.047 -0.068,0.006 -0.143,0.129 -0.141,-0.037 0.081,-0.006 -0.15,-0.021 -0.348,-0.005 -0.5,-0.01 0.188,0.006 0.223,0.048 0.017,-0.009 -0.168,-0.046 -0.333,-0.084 -0.5,-0.146 0.156,0.059 0.226,0.075 0.034,-0.008 q -0.24,-0.158 -0.042,-0.018 c 0.121,0.1 0.119,0.084 -0.006,-0.037 -0.017,0.041 0.106,0.172 -0.036,-0.068 -0.107,-0.18 -0.215,-0.354 -0.309,-0.543 a 1.1,1.1 0 1 0 -0.043,-0.106 3.217,3.217 0 0 1 -0.156,-0.595 c 0.038,0.305 0.031,-0.051 0.034,-0.17 a 27.655,27.655 0 0 1 1.721,-9.222 2.009,2.009 0 0 0 -1.4,-2.46 2.054,2.054 0 0 0 -2.46,1.4 z"
         id="path41"
         style="fill:#211715" />
      <path
         class="a"
         d="m 254.87,99.411 a 52.4,52.4 0 0 1 10.537,4.92 14.036,14.036 0 0 1 3.939,3.093 c 0.837,1.083 1.593,2.232 2.338,3.379 3.577,5.5 6.566,11.6 10.915,16.554 1.7,1.939 4.521,-0.9 2.828,-2.828 a 57.116,57.116 0 0 1 -5.329,-7.759 c -1.876,-3.031 -3.685,-6.107 -5.672,-9.066 a 29.263,29.263 0 0 0 -2.724,-3.692 21.361,21.361 0 0 0 -4.62,-3.344 57.851,57.851 0 0 0 -11.149,-5.115 c -2.442,-0.831 -3.491,3.032 -1.063,3.858 z"
         id="path42"
         style="fill:#211715" />
      <path
         class="a"
         d="m 253.987,96.068 q -3.879,4.02 -7.946,7.853 -2.123,2 -4.3,3.94 -1.089,0.966 -2.2,1.911 c -0.331,0.281 -1.339,1.436 -1.773,1.406 0.28,0.02 -0.1,-0.462 -0.222,-0.741 q -0.375,-0.837 -0.735,-1.682 c -0.536,-1.25 -1.052,-2.507 -1.564,-3.766 -1.1,-2.693 -2.167,-5.4 -3.241,-8.1 -0.738,-1.859 -1.4,-3.8 -2.3,-5.592 -1.158,-2.3 -4.609,-0.277 -3.454,2.019 0.105,0.207 0.194,0.42 0.286,0.633 0.085,0.195 -0.066,-0.157 -0.066,-0.156 0.041,0.1 0.083,0.2 0.123,0.3 0.092,0.228 0.186,0.455 0.279,0.683 0.465,1.146 0.92,2.3 1.377,3.446 1.2,3.012 2.39,6.027 3.623,9.024 0.589,1.433 1.186,2.863 1.8,4.283 0.658,1.509 1.342,2.956 3.066,3.457 2.148,0.623 3.632,-0.7 5.16,-1.991 1.664,-1.4 3.291,-2.847 4.894,-4.317 q 5.157,-4.733 10.014,-9.778 c 1.789,-1.853 -1.036,-4.685 -2.828,-2.828 z"
         id="path43"
         style="fill:#211715" />
      <path
         class="a"
         d="m 261.708,123.979 c -1.665,9.129 -3.31,18.281 -4.548,27.479 a 2.07,2.07 0 0 0 1.4,2.46 2.013,2.013 0 0 0 2.46,-1.4 c 1.238,-9.2 2.883,-18.35 4.548,-27.479 0.459,-2.516 -3.395,-3.6 -3.857,-1.063 z"
         id="path44"
         style="fill:#211715" />
      <path
         class="b"
         d="m 276.674,47.321 a 35.224,35.224 0 0 1 -1.79,9.136 1.118,1.118 0 0 1 0.223,0.046 3.624,3.624 0 0 1 2.359,2.061 5.123,5.123 0 0 1 0.262,2.115 15.369,15.369 0 0 1 -2.62,7.871 9.763,9.763 0 0 1 -2.938,2.955 5.766,5.766 0 0 1 -3.381,0.589 c 0,0 -0.166,-0.013 -0.46,-0.039 a 29.963,29.963 0 0 1 -6.775,9.293 21.712,21.712 0 0 1 -13.272,6.11 33.2,33.2 0 0 1 -6.278,-0.19 37.315,37.315 0 0 1 -5.629,-1.365 21.977,21.977 0 0 1 -11.713,-9.428 29.965,29.965 0 0 1 -4.139,-10.787 3.981,3.981 0 0 1 -3.677,-1.49 9.768,9.768 0 0 1 -2.07,-3.617 15.373,15.373 0 0 1 -0.486,-8.281 5.113,5.113 0 0 1 0.8,-1.975 3.625,3.625 0 0 1 2.813,-1.378 3.736,3.736 0 0 1 0.4,0.015 c -0.026,-0.535 -0.041,-0.851 -0.041,-0.851 a 39.706,39.706 0 0 1 0.618,-8.424 c 2.016,-11.546 14.266,-23.1 33.957,-20.1 21.294,3.243 24.214,23.547 23.837,27.734 z"
         id="path45"
         style="fill:#ffffff" />
      <path
         class="d"
         d="M 216.777,34.438 A 28.18,28.18 0 0 1 227.746,19 a 35.218,35.218 0 0 1 23.59,-5.807 c 5.988,0.791 8.928,1.424 13.165,4.486 l 3.708,2.68 1.443,1.061 a 16.33,16.33 0 0 1 3.672,3.743 c 4.283,5.384 6.569,14.354 6.1,22.056 a 35.509,35.509 0 0 1 -2.5,10.468 3.715,3.715 0 0 0 -1.821,-1.181 3.84,3.84 0 0 0 -3.164,0.489 c 0,0 -0.346,0.262 -0.852,0.66 -0.213,-1.14 -0.515,-2.8 -0.774,-3.6 a 9.777,9.777 0 0 0 -0.927,-2.082 5.232,5.232 0 0 0 -0.6,-0.847 c -0.384,-0.415 -1.195,-1.284 -1.615,-1.666 a 20.307,20.307 0 0 1 -4.748,-6.3 c -1.287,-2.567 -2.381,-5.661 -1.779,-8.565 a 22.309,22.309 0 0 1 -18.676,9.73 c -1.923,0.025 -3.489,-1.88 -5.258,-2.18 -5.246,2.574 -12.385,6.5 -14.366,9.886 l -1.517,-1.783 a 3.841,3.841 0 0 0 -2.929,-1.294 3.787,3.787 0 0 0 -2.182,0.743 41,41 0 0 1 1.061,-15.259 z"
         id="path46"
         style="fill:#b5886a" />
      <path
         class="a"
         d="m 272.952,58.719 a 1.782,1.782 0 0 1 2.7,0.65 5.79,5.79 0 0 1 0.006,2.252 13.58,13.58 0 0 1 -0.577,2.5 12.574,12.574 0 0 1 -2.351,4.279 5.686,5.686 0 0 1 -1.772,1.494 c -0.008,0 -0.592,0.182 -0.63,0.188 a 6.8,6.8 0 0 1 -1.536,0.013 2,2 0 0 0 0,4 7.99,7.99 0 0 0 6.847,-2.959 17.13,17.13 0 0 0 3.595,-6.991 c 0.643,-2.6 1.011,-5.808 -0.944,-7.946 a 5.858,5.858 0 0 0 -7.354,-0.933 2.0004048,2.0004048 0 0 0 2.019,3.454 z"
         id="path47"
         style="fill:#211715" />
      <path
         class="a"
         d="m 222.248,48.827 a 5.841,5.841 0 0 0 -7.476,-0.9 c -2.432,1.687 -2.863,5.037 -2.834,7.788 a 16.323,16.323 0 0 0 2.084,8.03 c 1.306,2.2 3.527,4.192 6.247,3.988 a 2.05,2.05 0 0 0 2,-2 2.016,2.016 0 0 0 -2,-2 1.962,1.962 0 0 1 -1.416,-0.383 6.023,6.023 0 0 1 -1.448,-1.744 11.84,11.84 0 0 1 -1.432,-4.994 13.788,13.788 0 0 1 0.067,-2.836 5.169,5.169 0 0 1 0.626,-2.214 1.773,1.773 0 0 1 2.754,0.1 2.0000516,2.0000516 0 1 0 2.828,-2.829 z"
         id="path48"
         style="fill:#211715" />
      <path
         class="a"
         d="m 273.151,57.81 a 26.486,26.486 0 0 0 -1.421,-5.627 16.018,16.018 0 0 0 -3.89,-4.856 19.665,19.665 0 0 1 -3.774,-5.368 c -1.018,-2.068 -1.906,-4.5 -1.487,-6.84 a 2.01,2.01 0 0 0 -3.655,-1.541 c -4.008,5.538 -9.811,9.239 -16.769,9.311 -2.573,0.026 -2.579,4.027 0,4 8.456,-0.088 15.372,-4.589 20.223,-11.292 l -3.656,-1.541 c -0.918,5.121 1.558,10.418 4.71,14.347 1.256,1.565 3.027,2.765 4.14,4.429 1.165,1.74 1.329,4.037 1.722,6.041 0.5,2.524 4.351,1.456 3.857,-1.063 z"
         id="path49"
         style="fill:#211715" />
      <path
         class="a"
         d="m 242.727,35.639 c -2.663,3.357 -7.323,5.135 -11.142,7.094 -4,2.054 -8.656,4.341 -11.018,8.373 -1.3,2.226 2.152,4.241 3.454,2.019 a 12.352,12.352 0 0 1 3.94,-3.755 65.234,65.234 0 0 1 6.4,-3.572 c 3.84,-1.955 8.44,-3.864 11.191,-7.33 a 2.065,2.065 0 0 0 0,-2.829 2.014,2.014 0 0 0 -2.829,0 z"
         id="path50"
         style="fill:#211715" />
      <path
         class="a"
         d="m 265.511,15.949 c -4.3,-3.073 -9.007,-4.115 -14.175,-4.759 a 36.19,36.19 0 0 0 -17.848,2.5 31.33,31.33 0 0 0 -17.659,17.33 c -2.23,5.584 -2.649,11.764 -2.192,17.708 0.2,2.55 4.2,2.571 4,0 -0.666,-8.664 0.771,-17.587 6.843,-24.172 6.072,-6.585 15.224,-9.94 24.11,-9.6 a 39.434,39.434 0 0 1 8.4,1.247 19.762,19.762 0 0 1 6.5,3.2 2.016,2.016 0 0 0 2.736,-0.717 2.044,2.044 0 0 0 -0.717,-2.737 z"
         id="path51"
         style="fill:#211715" />
      <path
         class="a"
         d="m 279.221,57.4 a 36.108,36.108 0 0 0 1.339,-20.654 c -1.386,-6.463 -4.472,-13.043 -9.9,-17.058 a 2.014,2.014 0 0 0 -2.736,0.718 2.046,2.046 0 0 0 0.717,2.736 c 4.466,3.3 7.029,9.57 8.144,15.063 a 32.2,32.2 0 0 1 -1.422,18.132 2.014,2.014 0 0 0 1.4,2.46 2.047,2.047 0 0 0 2.46,-1.4 z"
         id="path52"
         style="fill:#211715" />
      <path
         class="a"
         d="m 218.17,63.019 c 0.891,9.67 5.982,19.672 15.168,23.827 a 30.472,30.472 0 0 0 15.525,2.554 24.419,24.419 0 0 0 13.43,-6.037 32.346,32.346 0 0 0 9.021,-13.313 c 0.894,-2.417 -2.971,-3.461 -3.857,-1.063 -2.821,7.627 -9.181,14.644 -17.408,16.226 -8.416,1.618 -17.99,-1.617 -22.963,-8.7 a 28.07,28.07 0 0 1 -4.916,-13.491 2.054,2.054 0 0 0 -2,-2 2.015,2.015 0 0 0 -2,2 z"
         id="path53"
         style="fill:#211715" />
      <path
         class="a"
         d="m 244.2,61.85 c -0.281,0.667 -0.54,1.343 -0.765,2.031 a 2.937,2.937 0 0 0 -0.16,1.046 2.617,2.617 0 0 0 0.332,1.188 2.574,2.574 0 0 0 0.89,0.87 3.11,3.11 0 0 0 1.5,0.461 c 0.146,0.014 0.291,0 0.438,0 a 2.062,2.062 0 0 0 1.414,-0.586 2,2 0 0 0 0,-2.829 2.093,2.093 0 0 0 -1.414,-0.585 3.945,3.945 0 0 1 -0.474,0 l 0.531,0.072 a 1.186,1.186 0 0 1 -0.233,-0.065 l 0.478,0.2 a 1.579,1.579 0 0 1 -0.314,-0.187 l 0.405,0.313 a 0.324,0.324 0 0 1 -0.056,-0.055 l 0.313,0.405 a 0.516,0.516 0 0 1 -0.055,-0.1 l 0.2,0.478 a 0.605,0.605 0 0 1 -0.025,-0.112 l 0.071,0.532 a 0.939,0.939 0 0 1 0.008,-0.205 l -0.072,0.532 a 6.869,6.869 0 0 1 0.4,-1.214 c 0.143,-0.378 0.291,-0.754 0.448,-1.127 a 1.522,1.522 0 0 0 0.036,-0.8 1.5,1.5 0 0 0 -0.238,-0.744 2,2 0 0 0 -2.736,-0.717 l -0.405,0.313 a 1.99,1.99 0 0 0 -0.514,0.882 z"
         id="path54"
         style="fill:#211715" />
      <path
         class="a"
         d="m 233.128,53.834 c -0.593,1.293 -0.733,4.432 1.788,5.033 3.379,0.426 4.055,-3.3 3.151,-5.215 -0.74,-1.567 -3.398,-2.529 -4.939,0.182 z"
         id="path55"
         style="fill:#211715" />
      <path
         class="a"
         d="m 260.172,57.406 c 0.237,1.4 -0.444,4.47 -3.034,4.4 -3.374,-0.467 -3.058,-4.242 -1.689,-5.855 1.122,-1.324 3.938,-1.563 4.723,1.455 z"
         id="path56"
         style="fill:#211715" />
      <path
         class="a"
         d="m 249.572,76.206 a 11.445,11.445 0 0 0 2.122,-3.244 2.015,2.015 0 0 0 -1.928,-2.532 c -3.281,-0.044 -6.56,-0.163 -9.828,-0.466 a 2.012,2.012 0 0 0 -1.928,2.536 12.96,12.96 0 0 0 4.095,6.51 3.768,3.768 0 0 0 4.482,0.2 17.751,17.751 0 0 0 2.985,-3 2,2 0 1 0 -2.828,-2.828 29.549,29.549 0 0 1 -2.283,2.437 1.69,1.69 0 0 0 -0.2,0.176 c 0.231,-0.306 0.245,-0.16 0.062,-0.073 -0.219,0.1 0.451,-0.131 0.117,-0.047 -0.334,0.084 0.376,0.011 0.119,-0.009 -0.3,-0.024 -0.134,0 0.058,0.039 -0.337,-0.071 0.193,0.158 0.022,0.016 -0.079,-0.067 -0.409,-0.215 -0.029,0.008 a 1.893,1.893 0 0 1 -0.291,-0.254 c -0.158,-0.146 -0.316,-0.294 -0.467,-0.448 -0.079,-0.081 -0.156,-0.164 -0.23,-0.249 -0.232,-0.266 0,-0.111 0,0.022 0,-0.133 -0.342,-0.489 -0.414,-0.6 q -0.2,-0.32 -0.379,-0.653 c -0.121,-0.223 -0.234,-0.45 -0.343,-0.68 -0.043,-0.091 -0.083,-0.183 -0.126,-0.274 -0.215,-0.464 0.155,0.4 -0.032,-0.069 -0.169,-0.423 -0.325,-0.849 -0.465,-1.282 l -1.929,2.531 c 3.268,0.3 6.547,0.422 9.828,0.466 L 247.837,71.9 c 0.229,-0.594 0,-0.034 -0.075,0.1 -0.1,0.179 -0.218,0.351 -0.335,0.52 -0.042,0.06 -0.47,0.615 -0.21,0.291 q -0.232,0.29 -0.473,0.573 a 2,2 0 0 0 2.828,2.828 z"
         id="path57"
         style="fill:#211715" />
      <path
         class="b"
         d="m 114.264,93.488 a 9.954,9.954 0 0 0 3.224,-4.769 c 0.161,-0.444 0.308,-0.894 0.442,-1.347 1.182,0.055 2.928,0 4.153,-0.054 a 37.576,37.576 0 0 0 6.984,-1.223 23.879,23.879 0 0 0 4.219,-1.689 l 0.7,2.06 c 0.425,1.246 1.344,4.677 1.77,5.924 a 2.861,2.861 0 0 0 0.351,0.779 2.4,2.4 0 0 0 1.353,0.8 9.159,9.159 0 0 0 1.976,0.2 c -1.308,2.983 -8.151,12.171 -12.138,16.867 a 2,2 0 0 1 -2.968,0.087 123.144,123.144 0 0 1 -12.924,-15.623 12.628,12.628 0 0 0 2.858,-2.014"
         id="path58"
         style="fill:#ffffff" />
      <path
         class="b"
         d="m 15.183,77.143 a 52.9,52.9 0 0 0 13.076,4.232 c 1.595,0.779 4,2.588 6.025,3.87 0.041,-0.138 0.088,-0.274 0.136,-0.407 a 37.354,37.354 0 0 1 7.934,-12.914 c -1.43,-1.01 -3.04,-2.34 -3.79,-2.94 -1.34,-6.4 -3.54,-12.84 -7.27,-17.44 a 5.744,5.744 0 0 0 -2.9,-1.93 3.178,3.178 0 0 0 -2.95,1.41 5.162,5.162 0 0 0 -0.19,3.02 l 0.013,0.088 -0.642,-0.416 c -3.345,-2.655 -4.947,-4.007 -7.8,-6.275 a 6.8,6.8 0 0 0 -2.8,-1.106 3.187,3.187 0 0 0 -3.22,1.659 c -0.3,0.657 -0.8,1.979 -0.172,2.909 C 9.772,50.189 6.84,49.062 5.533,50.746 3.6,53.24 6,55.155 6.677,55.835 a 2.862,2.862 0 0 0 -3.295,0.017 3.269,3.269 0 0 0 -1.256,3.708 5.743,5.743 0 0 0 1.55,2.293 57.379,57.379 0 0 0 5.643,4.491 19.054,19.054 0 0 0 -3.01,-0.531 2.516,2.516 0 0 0 -2.758,2.536 c -0.227,1.979 1.311,3.222 3.139,4.11 a 59.181,59.181 0 0 1 5.527,3.076 25.956,25.956 0 0 0 2.966,1.608 z"
         id="path59"
         style="fill:#ffffff" />
      <path
         class="b"
         d="m 43.166,71.1 c -0.035,0.029 -0.07,0.061 -0.1,0.094 a 37.334,37.334 0 0 0 -8.646,13.644 3.5,3.5 0 0 0 -0.238,2.378 3.665,3.665 0 0 0 1.531,1.57 l 42.009,28.325 c 5.862,3.953 14.848,7.911 21.335,10.723 l 1.128,0.488 c 2.2,7.932 4.225,16.034 6.175,23.651 0,0 0.1,0.389 0.275,1.077 8.82,0.22 20.522,0.542 27.317,0.628 l 25.993,0.5 c 4.246,-0.027 9.634,-0.039 15.2,-0.046 v -53.349 l -13.92,-4.523 a 44.641,44.641 0 0 0 -8.817,-2.214 44.618,44.618 0 0 0 -5.211,-0.168 q -3.829,0.027 -7.66,0.051 c -1.017,2.7 -8.135,12.278 -12.235,17.106 a 2,2 0 0 1 -2.968,0.087 122.774,122.774 0 0 1 -12.958,-15.665 c -2.347,0.5 -9.271,1.538 -10.453,1.625 A 24.054,24.054 0 0 1 92.9,96.019 C 82.385,92.4 73.138,85.931 63.477,80.425 57.13,76.808 51.417,74.183 44.9,70.917 A 1.6,1.6 0 0 0 43.166,71.1 Z"
         id="path60"
         style="fill:#ffffff" />
      <path
         class="a"
         d="m 93.974,114.535 c 4.073,12.486 7.2,25.254 10.458,37.97 0.638,2.492 4.5,1.436 3.857,-1.064 -3.255,-12.716 -6.385,-25.483 -10.458,-37.969 -0.8,-2.437 -4.659,-1.394 -3.857,1.063 z"
         id="path61"
         style="fill:#211715" />
      <path
         class="a"
         d="m 138.271,95.94 c 6.168,-0.042 12.522,-0.637 18.525,1.042 6.003,1.679 11.894,3.805 17.817,5.729 2.454,0.8 3.5,-3.064 1.063,-3.857 -6.069,-1.972 -12.116,-4.2 -18.279,-5.856 -6.212,-1.67 -12.761,-1.1 -19.126,-1.058 -2.573,0.018 -2.579,4.018 0,4 z"
         id="path62"
         style="fill:#211715" />
      <path
         class="a"
         d="m 109.649,96.466 a 104.549,104.549 0 0 0 7.552,9.78 q 1.962,2.274 4.011,4.471 c 1.247,1.343 2.458,2.977 4.461,3.015 1.744,0.033 2.818,-1 3.847,-2.244 q 1.378,-1.668 2.7,-3.38 c 1.872,-2.407 3.707,-4.846 5.456,-7.344 a 31.133,31.133 0 0 0 3.794,-6.321 2.015,2.015 0 0 0 -1.4,-2.46 2.047,2.047 0 0 0 -2.461,1.4 c -0.092,0.239 0.187,-0.325 -0.091,0.176 -0.119,0.216 -0.229,0.437 -0.349,0.652 -0.263,0.467 -0.544,0.924 -0.83,1.377 -0.735,1.164 -1.514,2.3 -2.307,3.426 q -2.87,4.076 -5.987,7.973 -0.718,0.9 -1.452,1.788 c -0.253,0.3 -0.709,0.955 -0.878,0.953 -0.254,0 -1.561,-1.707 -1.836,-2 q -1.173,-1.267 -2.324,-2.556 A 102.013,102.013 0 0 1 113.1,94.448 c -1.433,-2.123 -4.9,-0.123 -3.454,2.018 z"
         id="path63"
         style="fill:#211715" />
      <path
         class="a"
         d="m 28.323,57.763 a 24.172,24.172 0 0 1 -1.1,-3.982 c -0.137,-0.87 -0.408,-2.414 0.9,-2.2 0.924,0.148 1.8,1.393 2.3,2.093 a 29.254,29.254 0 0 1 2.389,4.026 44.728,44.728 0 0 1 3.127,8.811 q 0.31,1.215 0.576,2.442 a 2.952,2.952 0 0 0 1.18,1.887 c 1.2,0.964 2.4,1.92 3.65,2.813 a 2.015,2.015 0 0 0 2.736,-0.717 2.044,2.044 0 0 0 -0.717,-2.737 C 42.2,69.368 41.093,68.467 39.979,67.572 l 0.514,0.883 a 57.466,57.466 0 0 0 -2.951,-9.92 28.912,28.912 0 0 0 -5.022,-8.622 c -2.218,-2.422 -6,-3.3 -8.354,-0.523 -2.127,2.514 -0.634,6.7 0.3,9.438 0.826,2.423 4.691,1.383 3.857,-1.063 z"
         id="path64"
         style="fill:#211715" />
      <path
         class="a"
         d="m 100.067,126.107 c -4.895,-2.123 -9.784,-4.278 -14.516,-6.746 A 149.21,149.21 0 0 1 71.318,110.386 L 39.606,89 37.546,87.611 c -0.339,-0.228 -1.21,-0.622 -1.4,-1 -0.375,-0.762 0.673,-2.526 1.01,-3.283 a 36.972,36.972 0 0 1 4.1,-7.016 33.311,33.311 0 0 1 2.353,-2.8 4.664,4.664 0 0 0 0.575,-0.6 l 0.293,-0.3 q -0.763,0.06 -0.153,0.251 c 0.328,0.46 1.6,0.8 2.134,1.06 2.6,1.283 5.208,2.549 7.8,3.854 10.325,5.204 19.817,11.945 30.257,16.923 5.077,2.42 10.645,4.821 16.408,4.384 a 86.921,86.921 0 0 0 10.984,-1.7 c 2.519,-0.526 1.453,-4.382 -1.063,-3.858 a 89.573,89.573 0 0 1 -9.775,1.541 C 95.96,95.516 91.036,93.39 86.534,91.242 c -5.359,-2.556 -10.439,-5.644 -15.523,-8.7 -5.219,-3.137 -10.5,-6.116 -15.952,-8.834 -2.828,-1.411 -5.673,-2.787 -8.5,-4.2 -1.285,-0.641 -2.568,-1.087 -3.95,-0.4 a 11.047,11.047 0 0 0 -3.071,2.976 39.763,39.763 0 0 0 -4.838,7.161 c -0.595,1.141 -1.124,2.313 -1.612,3.5 -0.59,1.442 -1.284,3.021 -0.94,4.611 a 5.17,5.17 0 0 0 2.4,3.047 c 1.405,0.987 2.849,1.923 4.273,2.883 l 8.237,5.554 16.474,11.108 c 5.808,3.916 11.5,8.176 17.627,11.586 5.447,3.033 11.173,5.545 16.888,8.023 a 2.066,2.066 0 0 0 2.736,-0.718 2.014,2.014 0 0 0 -0.717,-2.736 z"
         id="path65"
         style="fill:#211715" />
      <path
         class="a"
         d="m 112.088,97.4 a 14.59,14.59 0 0 0 1.778,-1.044 13.406,13.406 0 0 0 1.812,-1.452 2,2 0 0 0 0,-2.828 2.01,2.01 0 0 0 -1.414,-0.586 2.1,2.1 0 0 0 -1.414,0.586 9.574,9.574 0 0 1 -0.814,0.706 l 0.4,-0.313 a 14.194,14.194 0 0 1 -2.371,1.477 2,2 0 0 0 0.478,3.656 l 0.532,0.071 a 1.987,1.987 0 0 0 1.009,-0.273 z"
         id="path66"
         style="fill:#211715" />
      <path
         class="a"
         d="M 26.039,52.3 Q 23.561,50.332 21.11,48.332 c -1.6,-1.294 -3.127,-2.793 -5.075,-3.525 a 5.634,5.634 0 0 0 -6.023,0.956 5.326,5.326 0 0 0 -1.1,6.149 l 2.736,-2.737 C 9.38,47.429 5.595,47.275 3.813,49.736 1.851,52.448 3.15,55.179 5.264,57.248 L 7.688,54.107 A 5.122,5.122 0 0 0 1.252,55.061 5.462,5.462 0 0 0 0.684,61.21 c 0.906,1.76 2.62,3.009 4.129,4.229 a 62.188,62.188 0 0 0 5.81,4.159 c 2.18,1.384 4.188,-2.076 2.019,-3.454 A 56.47,56.47 0 0 1 5.768,61.032 C 5.052,60.408 3.921,59.558 3.968,58.494 a 1.084,1.084 0 0 1 1.7,-0.933 2.009,2.009 0 0 0 2.423,-3.141 c -0.616,-0.6 -1.825,-1.484 -1.045,-2.356 0.555,-0.62 2.007,0.124 2.582,0.566 1.7,1.306 3.593,-1.141 2.736,-2.736 -0.365,-0.68 0.62,-1.58 1.244,-1.594 a 4.915,4.915 0 0 1 2.921,1.447 c 2.23,1.79 4.442,3.6 6.682,5.383 a 2.062,2.062 0 0 0 2.828,0 2.014,2.014 0 0 0 0,-2.829 z"
         id="path67"
         style="fill:#211715" />
      <path
         class="a"
         d="m 9.5,64.34 c -2.733,-0.639 -5.982,-1.059 -7.424,1.988 -1.718,3.629 0.869,6.486 3.952,8.026 2.689,1.344 5.16,3.073 7.863,4.379 a 58.6,58.6 0 0 0 9.409,3.576 c 1.56,0.445 3.548,0.511 4.917,1.326 1.756,1.047 3.4,2.28 5.121,3.378 2.178,1.386 4.186,-2.074 2.019,-3.454 -1.676,-1.067 -3.273,-2.26 -4.973,-3.289 a 15.437,15.437 0 0 0 -4.6,-1.436 51.234,51.234 0 0 1 -10.026,-3.625 c -1.251,-0.611 -2.4,-1.344 -3.6,-2.057 C 10.547,72.188 8.858,71.381 7.215,70.487 6.378,70.033 4.783,68.959 5.791,67.833 a 1.862,1.862 0 0 1 0.508,-0.02 13.439,13.439 0 0 1 2.124,0.384 c 2.5,0.585 3.573,-3.271 1.063,-3.857 z"
         id="path68"
         style="fill:#211715" />
      <path
         class="a"
         d="M 9.628,52.63 C 8.942,52.102 9.452,52.495 9.613,52.622 c 0.161,0.127 0.294,0.235 0.44,0.354 q 0.55,0.443 1.1,0.892 1.326,1.086 2.646,2.181 c 1.5,1.243 2.993,2.511 4.537,3.7 a 2.191,2.191 0 0 0 1.415,0.586 2,2 0 0 0 1.414,-3.414 c -2.586,-2 -5.057,-4.15 -7.588,-6.216 -0.636,-0.519 -1.276,-1.032 -1.926,-1.533 a 2,2 0 0 0 -1.541,-0.2 2,2 0 0 0 -1.4,2.46 2.363,2.363 0 0 0 0.919,1.2 z"
         id="path69"
         style="fill:#211715" />
      <path
         class="a"
         d="m 5.668,57.562 c 0.134,0.1 0.4,0.31 -0.2,-0.155 l 0.193,0.15 0.454,0.354 q 0.57,0.444 1.137,0.89 1.351,1.061 2.7,2.124 c 1.652,1.3 3.3,2.606 4.966,3.89 a 2,2 0 0 0 1.542,0.2 2,2 0 0 0 0.477,-3.656 l 0.191,0.148 -0.2,-0.155 -0.465,-0.363 -1.153,-0.9 Q 13.952,59.024 12.597,57.955 C 10.963,56.669 9.333,55.376 7.684,54.11 a 2,2 0 0 0 -1.541,-0.2 2,2 0 0 0 -0.478,3.656 z"
         id="path70"
         style="fill:#211715" />
      <path
         class="a"
         d="m 132.061,87 c 0.547,1.614 0.962,3.274 1.451,4.906 a 5.96,5.96 0 0 0 1.5,3 6.862,6.862 0 0 0 4.43,1.261 2.016,2.016 0 0 0 2,-2 2.042,2.042 0 0 0 -2,-2 c -0.3,-0.011 -0.61,-0.021 -0.914,-0.043 l -0.2,-0.016 q -0.334,-0.036 0.149,0.026 a 1.528,1.528 0 0 0 -0.367,-0.069 c -0.114,-0.027 -0.227,-0.058 -0.338,-0.095 -0.055,-0.017 -0.109,-0.036 -0.163,-0.057 -0.143,-0.054 -0.072,-0.025 0.213,0.089 a 1.2,1.2 0 0 0 -0.3,-0.17 q 0.374,0.306 0.143,0.1 l -0.077,-0.084 q 0.282,0.38 0.117,0.106 -0.108,-0.226 0,0.017 c 0.166,0.286 -0.01,-0.063 -0.035,-0.138 -0.045,-0.135 -0.089,-0.271 -0.132,-0.407 -0.107,-0.339 -0.208,-0.68 -0.308,-1.021 -0.437,-1.489 -0.823,-3 -1.321,-4.468 A 2,2 0 1 0 132.061,87 Z"
         id="path71"
         style="fill:#211715" />
      <path
         class="a"
         d="m 24.664,57.287 a 11.529,11.529 0 0 0 -1.08,6.887 2.2,2.2 0 0 0 0.586,1.415 2,2 0 0 0 2.829,0 1.926,1.926 0 0 0 0.585,-1.415 12.889,12.889 0 0 1 -0.016,-3.272 l -0.072,0.532 a 8.322,8.322 0 0 1 0.528,-1.992 l -0.2,0.478 c 0.089,-0.21 0.187,-0.413 0.3,-0.614 a 2,2 0 0 0 -3.453,-2.019 z"
         id="path72"
         style="fill:#211715" />
      <path
         class="b"
         d="m 148.312,47.268 a 4.3,4.3 0 0 1 3.359,-1.253 4.061,4.061 0 0 1 3.053,1.725 5.73,5.73 0 0 1 0.766,2.26 17.2,17.2 0 0 1 -1.091,9.223 10.931,10.931 0 0 1 -2.552,3.906 3.372,3.372 0 0 1 -4,0.771 33.871,33.871 0 0 1 -5.5,12.41 24.514,24.514 0 0 1 -13.28,9.79 37.576,37.576 0 0 1 -6.984,1.223 42.353,42.353 0 0 1 -6.533,-0.225 24.8,24.8 0 0 1 -15.1,-7.748 33.818,33.818 0 0 1 -7.06,-11.034 c -1.811,1 -3.265,0.152 -4.4,-0.629 a 10.933,10.933 0 0 1 -3.088,-3.5 17.214,17.214 0 0 1 -2.409,-8.971 5.725,5.725 0 0 1 0.433,-2.347 4.06,4.06 0 0 1 2.774,-2.149 4.3,4.3 0 0 1 3.505,0.756 c 0,0 -3.779,-25.494 24.449,-28.734 34.085,-3.912 33.658,24.526 33.658,24.526 z"
         id="path73"
         style="fill:#ffffff" />
      <path
         class="f"
         d="m 96.288,38.4 c -0.474,0.657 -0.95,1.3 -1.428,1.923 -0.237,0.531 -0.378,0.849 -0.378,0.849 -0.982,2.2 -1.363,6.226 -3.681,10.9 A 4.112,4.112 0 0 0 86.875,50.7 C 84.259,46 83.527,37.06 84.451,31.6 85.356,26.254 87.884,21.188 90.795,19.232 l 4.024,-5.067 c 4.835,-6.167 11.9,-9.092 19.06,-9.721 7.758,-0.681 15.214,0.591 21.218,6.521 l 5.774,3.407 c 4.367,1.79 8.39,6.973 10.086,10.579 2.453,5.214 3.685,14.149 2.105,21.419 a 4.2,4.2 0 0 0 -5.1,1.348 36.461,36.461 0 0 0 -5.077,-14.011 c -0.938,-1.421 -3.7,-1.752 -5.107,-2.716 0,0 -4.475,-4.632 -13.052,-5.075 -3.193,-0.165 -9.465,1.669 -9.465,1.669 -4.469,-0.3 -7.7,-0.749 -11.424,1.738 -2.432,1.621 -4.969,5.505 -7.549,9.077 z"
         id="path74"
         style="fill:#7a7473" />
      <path
         class="a"
         d="m 149.726,48.682 a 2.248,2.248 0 0 1 3.275,0.072 4.49,4.49 0 0 1 0.615,2.207 16.879,16.879 0 0 1 0.015,3.226 14.218,14.218 0 0 1 -1.575,5.346 7.86,7.86 0 0 1 -1.623,2.183 1.386,1.386 0 0 1 -1.3,0.5 2.053,2.053 0 0 0 -2.46,1.4 2.018,2.018 0 0 0 1.4,2.461 c 6.512,1.241 9.342,-7.516 9.6,-12.527 0.144,-2.754 -0.1,-6.259 -2.405,-8.125 a 6.324,6.324 0 0 0 -8.374,0.436 c -1.854,1.793 0.976,4.62 2.828,2.829 z"
         id="path75"
         style="fill:#211715" />
      <path
         class="a"
         d="m 91.209,49.749 a 6.287,6.287 0 0 0 -8.15,0.866 c -2.086,2.3 -1.732,5.881 -1.164,8.7 a 18.36,18.36 0 0 0 3.747,7.963 c 1.827,2.217 4.713,4.121 7.679,3.238 2.461,-0.732 1.413,-4.594 -1.064,-3.857 -1.451,0.432 -2.978,-1.179 -3.787,-2.209 a 14.517,14.517 0 0 1 -2.508,-5.285 14.241,14.241 0 0 1 -0.451,-2.858 5.418,5.418 0 0 1 0.238,-2.64 c 0.684,-1.321 2.383,-1.226 3.442,-0.464 a 2.016,2.016 0 0 0 2.736,-0.718 2.044,2.044 0 0 0 -0.718,-2.736 z"
         id="path76"
         style="fill:#211715" />
      <path
         class="a"
         d="m 115.276,20.694 c 0.246,0.072 0.489,0.149 0.731,0.234 0.111,0.04 0.492,0.259 0.6,0.229 q -0.391,-0.167 -0.184,-0.076 l 0.175,0.079 c 0.116,0.054 0.232,0.109 0.346,0.166 0.191,0.094 0.379,0.194 0.565,0.3 a 13.209,13.209 0 0 1 1.19,0.749 c 0.105,0.074 0.207,0.15 0.31,0.226 0.365,0.266 -0.346,-0.29 0,0 0.18,0.152 0.361,0.3 0.535,0.457 a 13.537,13.537 0 0 1 1,0.994 q 0.236,0.261 0.458,0.534 l 0.08,0.1 q 0.2,0.251 -0.078,-0.1 l 0.189,0.258 a 13.2,13.2 0 0 1 0.754,1.186 c 0.114,0.2 0.224,0.412 0.327,0.622 0.057,0.115 0.111,0.23 0.164,0.347 0.053,0.117 0.215,0.512 0,-0.008 a 2.2,2.2 0 0 0 0.919,1.2 2.044,2.044 0 0 0 1.541,0.2 2.02,2.02 0 0 0 1.4,-2.46 15.309,15.309 0 0 0 -9.948,-9.088 2.0004011,2.0004011 0 0 0 -1.063,3.857 z"
         id="path77"
         style="fill:#211715" />
      <path
         class="a"
         d="m 127.537,23.024 c 0.125,0.087 0.247,0.177 0.368,0.269 L 127.5,22.981 a 8.352,8.352 0 0 1 1.41,1.421 L 128.6,24 a 8.579,8.579 0 0 1 1.06,1.807 l -0.2,-0.478 a 8.263,8.263 0 0 1 0.579,2.105 l -0.071,-0.532 c 0.015,0.121 0.028,0.242 0.038,0.363 a 2.145,2.145 0 0 0 0.586,1.414 2,2 0 0 0 3.408,-1.417 10.1,10.1 0 0 0 -4.446,-7.692 2,2 0 0 0 -2.938,2.258 2.254,2.254 0 0 0 0.92,1.2 z"
         id="path78"
         style="fill:#211715" />
      <path
         class="a"
         d="m 137.847,31.6 a 12.7,12.7 0 0 1 3.744,3.816 27.92,27.92 0 0 1 2.094,4.434 49.382,49.382 0 0 1 1.569,4.9 c 0.2,0.763 0.386,1.532 0.541,2.306 0.061,0.3 0.118,0.608 0.169,0.914 0.025,0.155 0.05,0.311 0.072,0.467 -0.048,-0.345 0,-0.01 0.011,0.145 a 2.059,2.059 0 0 0 2,2 2.013,2.013 0 0 0 2,-2 39.7,39.7 0 0 0 -2.7,-10.312 31.657,31.657 0 0 0 -2.483,-5.178 17.446,17.446 0 0 0 -4.993,-4.944 2.018,2.018 0 0 0 -2.737,0.717 2.042,2.042 0 0 0 0.718,2.737 z"
         id="path79"
         style="fill:#211715" />
      <path
         class="a"
         d="m 89.786,17.505 c -5.093,3.579 -7.209,10.694 -7.629,16.618 -0.4,5.711 0.214,12.129 2.836,17.294 1.166,2.3 4.618,0.274 3.454,-2.019 -2.2,-4.335 -2.572,-9.817 -2.331,-14.594 a 25.469,25.469 0 0 1 1.614,-7.689 c 0.828,-2.2 2.091,-4.762 4.075,-6.156 2.09,-1.469 0.094,-4.938 -2.019,-3.454 z"
         id="path80"
         style="fill:#211715" />
      <path
         class="a"
         d="m 139.862,16.1 c 4.706,2.021 8.447,6.9 10.083,11.668 a 35,35 0 0 1 1.267,17.694 c -0.49,2.515 3.364,3.591 3.857,1.063 A 38.892,38.892 0 0 0 153.688,26.38 c -1.983,-5.542 -6.275,-11.358 -11.807,-13.734 a 2.067,2.067 0 0 0 -2.737,0.718 2.014,2.014 0 0 0 0.718,2.736 z"
         id="path81"
         style="fill:#211715" />
      <path
         class="a"
         d="m 90.485,66.027 c 3.157,10.4 11.123,20.13 22.094,22.586 a 34.259,34.259 0 0 0 17.88,-0.862 26.623,26.623 0 0 0 12.419,-8.859 35.989,35.989 0 0 0 7.351,-16.912 2.066,2.066 0 0 0 -1.4,-2.46 2.014,2.014 0 0 0 -2.46,1.4 c -1.384,9.136 -6.572,18.581 -15.378,22.376 A 30.122,30.122 0 0 1 115.325,85.071 23.013,23.013 0 0 1 102.484,78.559 31.91,31.91 0 0 1 94.339,64.967 C 93.594,62.51 89.732,63.558 90.482,66.03 Z"
         id="path82"
         style="fill:#211715" />
      <path
         class="a"
         d="m 96.233,15.58 a 25.225,25.225 0 0 1 18.04,-9.169 c 7.153,-0.569 14.124,0.838 19.409,5.969 1.848,1.793 4.68,-1.032 2.829,-2.829 -6.018,-5.84 -14.038,-7.792 -22.238,-7.14 -8.038,0.64 -15.759,3.935 -20.868,10.34 a 2.063,2.063 0 0 0 0,2.829 2.014,2.014 0 0 0 2.828,0 z"
         id="path83"
         style="fill:#211715" />
      <path
         class="a"
         d="m 115.42,25.106 c -6.733,0.03 -13.019,3.393 -17.619,8.222 a 26.851,26.851 0 0 0 -5.83,9.321 c -1.12,3.1 -1.979,6.374 -2.858,9.549 -0.689,2.484 3.169,3.544 3.857,1.063 0.789,-2.848 1.645,-5.689 2.512,-8.515 a 21.933,21.933 0 0 1 4.9,-8.326 c 3.886,-4.212 9.233,-7.288 15.038,-7.314 2.573,-0.012 2.578,-4.012 0,-4 z"
         id="path84"
         style="fill:#211715" />
      <path
         class="a"
         d="m 119.277,58.382 c -0.255,0.834 -0.488,1.678 -0.669,2.531 a 3.783,3.783 0 0 0 -0.052,1.643 2.442,2.442 0 0 0 1.213,1.6 3.493,3.493 0 0 0 1.609,0.455 5.73,5.73 0 0 0 1.035,-0.119 l -0.531,0.071 0.065,-0.007 a 2.222,2.222 0 0 0 1.414,-0.586 2,2 0 0 0 0,-2.828 1.956,1.956 0 0 0 -1.414,-0.586 c -0.27,0.026 -0.537,0.07 -0.8,0.109 l 0.531,-0.071 a 1.622,1.622 0 0 1 -0.406,0.008 l 0.532,0.071 a 1.519,1.519 0 0 1 -0.349,-0.1 l 0.477,0.2 a 1.837,1.837 0 0 1 -0.267,-0.149 l 0.405,0.312 a 0.358,0.358 0 0 1 -0.062,-0.061 l 0.312,0.405 a 0.686,0.686 0 0 1 -0.065,-0.111 l 0.2,0.478 a 0.764,0.764 0 0 1 -0.043,-0.174 l 0.071,0.531 a 1.49,1.49 0 0 1 0.007,-0.291 l -0.072,0.532 a 12.327,12.327 0 0 1 0.333,-1.444 c 0.121,-0.453 0.248,-0.9 0.385,-1.353 a 2,2 0 0 0 -1.4,-2.46 2.023,2.023 0 0 0 -1.541,0.2 2.138,2.138 0 0 0 -0.919,1.2 z"
         id="path85"
         style="fill:#211715" />
      <path
         class="a"
         d="m 105.11,53.155 c -0.352,1.53 0.2,4.95 3.053,5.038 3.746,-0.294 3.644,-4.47 2.241,-6.335 -1.149,-1.528 -4.234,-1.974 -5.294,1.297 z"
         id="path86"
         style="fill:#211715" />
      <path
         class="a"
         d="m 134.992,50.991 c 0.569,1.463 0.518,4.927 -2.3,5.426 -3.748,0.248 -4.249,-3.9 -3.13,-5.947 0.921,-1.677 3.909,-2.563 5.43,0.521 z"
         id="path87"
         style="fill:#211715" />
      <path
         class="a"
         d="m 128.067,77.04 a 16.842,16.842 0 0 0 2.221,-7.7 c 0.127,-1.4 -1.374,-2.141 -2.532,-1.928 -0.977,0.179 -1.955,0.36 -2.935,0.524 q -0.651,0.108 -1.3,0.2 c -0.1,0.015 -0.807,0.108 -0.26,0.039 -0.211,0.026 -0.421,0.053 -0.632,0.078 a 55.233,55.233 0 0 1 -5.879,0.317 2,2 0 0 0 0,4 69.854,69.854 0 0 0 12.072,-1.306 l -2.531,-1.929 c -0.024,0.258 -0.056,0.514 -0.081,0.772 -0.023,0.237 0.049,-0.3 -0.013,0.089 -0.019,0.121 -0.037,0.241 -0.057,0.361 -0.1,0.582 -0.218,1.161 -0.369,1.731 -0.143,0.538 -0.322,1.06 -0.517,1.581 -0.108,0.288 0.132,-0.249 -0.011,0.018 -0.069,0.129 -0.125,0.266 -0.193,0.4 -0.132,0.254 -0.278,0.5 -0.433,0.737 a 2.015,2.015 0 0 0 0.717,2.736 2.044,2.044 0 0 0 2.736,-0.718 z"
         id="path88"
         style="fill:#211715" />
      <path
         class="b"
         d="m 201.079,139.614 a 51.674,51.674 0 0 1 12.183,6.944 q 1.051,0.824 2.053,1.712 c 1.154,1.219 3.226,3.826 4.852,5.815 -17.509,0.055 -54.249,0.007 -78.579,0.117 5.485,-7.643 13.806,-12.955 23.182,-16.818 z"
         id="path89"
         style="fill:#ffffff" />
      <path
         class="b"
         d="m 211.6,109.956 a 4.174,4.174 0 0 1 3.38,-0.828 3.943,3.943 0 0 1 2.747,2.008 5.563,5.563 0 0 1 0.483,2.265 16.7,16.7 0 0 1 -2.095,8.766 10.6,10.6 0 0 1 -2.9,3.476 3.2,3.2 0 0 1 -3.238,0.607 l -0.475,-0.167 c -0.347,1.149 -0.781,2.145 -0.978,2.632 -1.173,2.624 -7.843,12.251 -16.1,14.139 -4.809,1.871 -12.085,1.816 -16.933,0.407 a 26.924,26.924 0 0 1 -13.6,-8.831 30,30 0 0 1 -5.494,-10.366 l -0.72,0.16 a 3.984,3.984 0 0 1 -3.561,-1.3 10.623,10.623 0 0 1 -2.582,-3.72 16.692,16.692 0 0 1 -1.306,-8.918 5.562,5.562 0 0 1 0.682,-2.213 3.94,3.94 0 0 1 2.915,-1.756 4.169,4.169 0 0 1 3.292,1.125 c 0,0 2.1,-24.665 29.432,-23.447 27.332,1.218 27.051,25.961 27.051,25.961 z"
         id="path90"
         style="fill:#ffffff" />
      <path
         class="f"
         d="m 152.569,94.943 a 30.114,30.114 0 0 1 13.738,-20.724 31.588,31.588 0 0 1 18.977,-4.927 33.235,33.235 0 0 1 10.969,2.3 31.437,31.437 0 0 1 4.568,2.3 36.514,36.514 0 0 1 5.179,3.779 c 0.614,0.584 1.511,1.538 2.1,2.189 a 29.226,29.226 0 0 1 3.828,5.312 30.663,30.663 0 0 1 3.747,15.025 41.06,41.06 0 0 1 -0.974,8.895 4.126,4.126 0 0 0 -3.1,0.864 l -0.968,0.055 a 4.516,4.516 0 0 1 -4.227,-2.355 l -0.449,-0.825 a 31.773,31.773 0 0 0 -5.418,-15.23 2.613,2.613 0 0 0 -3.191,-0.889 53.074,53.074 0 0 1 -6.659,2.446 c -1.491,0.438 -3.45,0.726 -4.481,-0.257 -0.977,-0.931 -0.491,-2.517 -1.668,-3.291 a 4.107,4.107 0 0 0 -2.954,-0.2 c -10.457,2.126 -16.253,7.027 -20.447,14.83 l -0.625,0.964 a 4.978,4.978 0 0 1 -4.325,2.267 l -1.071,-0.032 a 4.076,4.076 0 0 0 -2.488,-1.12 c 0.108,1.863 -0.72,-4.962 -0.368,-8.947 q 0.114,-1.25 0.307,-2.429 z"
         id="path91"
         style="fill:#7a7473" />
      <path
         class="a"
         d="m 212.614,111.683 a 2.237,2.237 0 0 1 3.141,0.047 3.646,3.646 0 0 1 0.473,2.277 13.906,13.906 0 0 1 -0.284,2.929 14.864,14.864 0 0 1 -2.215,5.306 7.217,7.217 0 0 1 -1.624,1.747 c -0.694,0.513 -0.837,0.571 -1.594,0.333 -2.461,-0.776 -3.514,3.085 -1.064,3.857 3.036,0.956 5.582,-1.03 7.321,-3.342 a 17.5,17.5 0 0 0 3.2,-7.733 c 0.426,-2.764 0.669,-6.251 -1.551,-8.356 a 6.155,6.155 0 0 0 -7.818,-0.519 2.066,2.066 0 0 0 -0.718,2.736 2.015,2.015 0 0 0 2.737,0.718 z"
         id="path92"
         style="fill:#211715" />
      <path
         class="a"
         d="m 156.535,106.025 a 6.2,6.2 0 0 0 -8.144,-0.332 c -2.35,1.92 -2.491,5.521 -2.219,8.316 a 17.687,17.687 0 0 0 2.8,8.307 c 1.691,2.438 4.13,4.379 7.239,3.837 a 2.017,2.017 0 0 0 1.4,-2.46 2.045,2.045 0 0 0 -2.46,-1.4 c -1.153,0.2 -2.429,-1.522 -2.959,-2.355 a 14,14 0 0 1 -1.968,-5.5 15.028,15.028 0 0 1 -0.109,-2.868 5.512,5.512 0 0 1 0.455,-2.369 2.067,2.067 0 0 1 3.138,-0.354 c 1.9,1.735 4.733,-1.087 2.828,-2.829 z"
         id="path93"
         style="fill:#211715" />
      <path
         class="a"
         d="m 153.583,120.7 c 1.891,11.792 10.629,21.939 22.355,24.749 a 32.245,32.245 0 0 0 17.019,-0.665 27.483,27.483 0 0 0 12.754,-8.582 c 3.145,-3.6 5.82,-7.668 6.277,-12.554 a 2.014,2.014 0 0 0 -2,-2 2.043,2.043 0 0 0 -2,2 13.515,13.515 0 0 1 -1.013,3.609 6.664,6.664 0 0 1 -0.715,1.478 28.145,28.145 0 0 1 -2.6,3.724 c -2.73,3.332 -6.171,6.646 -10.332,8.059 a 29.721,29.721 0 0 1 -14.756,1.394 25.257,25.257 0 0 1 -13.443,-6.892 27.963,27.963 0 0 1 -7.684,-15.384 2.017,2.017 0 0 0 -2.461,-1.4 2.05,2.05 0 0 0 -1.4,2.461 z"
         id="path94"
         style="fill:#211715" />
      <path
         class="a"
         d="m 216.677,109.413 c 1.773,-8.5 1.289,-17.555 -3.02,-25.251 a 33.6,33.6 0 0 0 -19.21,-15.326 35.935,35.935 0 0 0 -25.123,1.452 33.52,33.52 0 0 0 -14.267,12.42 c -4.463,7.032 -5.452,15.27 -4.5,23.405 a 2.061,2.061 0 0 0 2,2 2.012,2.012 0 0 0 2,-2 c -0.742,-6.377 -0.443,-12.844 2.446,-18.695 a 29.323,29.323 0 0 1 10.961,-11.879 c 12.98,-8 31.514,-4.541 40.476,7.877 5.235,7.252 6.178,16.343 4.385,24.933 -0.524,2.512 3.331,3.586 3.857,1.064 z"
         id="path95"
         style="fill:#211715" />
      <path
         class="a"
         d="m 162.426,106.862 c 3.687,-6.8 9.1,-12.41 16.645,-14.745 a 22.6,22.6 0 0 1 3.239,-0.812 c 1.029,-0.156 1.038,-0.183 1.287,0.729 a 4.554,4.554 0 0 0 4.682,3.528 c 2.45,0.006 4.977,-1.059 7.22,-1.929 0.592,-0.23 1.179,-0.472 1.763,-0.719 0.274,-0.116 0.768,-0.462 1.094,-0.434 0.782,0.069 1.222,1.283 1.557,1.872 a 37.742,37.742 0 0 1 4.264,14.268 2.061,2.061 0 0 0 2,2 2.013,2.013 0 0 0 2,-2 45.544,45.544 0 0 0 -4,-14.731 c -1.017,-2.1 -2.25,-4.661 -4.71,-5.275 a 5.4,5.4 0 0 0 -3.56,0.56 q -2.153,0.913 -4.381,1.633 a 10.424,10.424 0 0 1 -3.252,0.755 c -0.993,-0.017 -0.771,-0.66 -1.069,-1.493 -1.041,-2.907 -3.921,-3.067 -6.548,-2.5 a 30.484,30.484 0 0 0 -12.627,5.986 36.476,36.476 0 0 0 -9.062,11.291 c -1.227,2.264 2.225,4.286 3.453,2.019 z"
         id="path96"
         style="fill:#211715" />
      <path
         class="a"
         d="m 200.547,141.542 a 52.011,52.011 0 0 1 9.985,5.465 44.6,44.6 0 0 1 8.112,7.975 2.017,2.017 0 0 0 2.829,0 2.043,2.043 0 0 0 0,-2.829 q -2,-2.365 -4.12,-4.634 a 30.68,30.68 0 0 0 -4.8,-3.966 56.4,56.4 0 0 0 -10.94,-5.868 2.012,2.012 0 0 0 -2.46,1.4 2.052,2.052 0 0 0 1.4,2.46 z"
         id="path97"
         style="fill:#211715" />
      <path
         class="a"
         d="m 145.11,152.948 c 5.425,-6.208 12.635,-10.5 20.192,-13.635 a 2.068,2.068 0 0 0 1.4,-2.461 2.013,2.013 0 0 0 -2.461,-1.4 c -8.19,3.394 -16.062,7.919 -21.956,14.665 -1.688,1.931 1.13,4.771 2.828,2.828 z"
         id="path98"
         style="fill:#211715" />
      <path
         class="b"
         d="m 134.684,148.289 c 0.19,-3.995 6.062,-9.664 13.147,-8.744 4.488,0.583 6.124,-0.193 9.219,3.108 2.816,3 3.316,7.241 2.881,11.351 -0.081,0.562 -0.243,1.718 -0.243,1.718 -0.277,1.993 -0.985,3.514 -2.6,4.187 a 3.839,3.839 0 0 1 -4.449,-1.166 c -0.206,1.885 -1.238,3.068 -2.94,3.095 -1.702,0.027 -3.483,-0.9 -3.76,-2.449 a 3.071,3.071 0 0 1 -3.2,1.288 c -1.068,-0.259 -2.8,-1.295 -2.878,-2.612 -0.539,1.279 -2.668,1.145 -3.912,0.153 -1.244,-0.992 -1.39,-2.767 -1.349,-4.357 0.041,-1.59 0,-4.284 0.091,-5.572"
         id="path99"
         style="fill:#ffffff" />
      <path
         class="a"
         d="m 136.684,148.289 a 4.063,4.063 0 0 1 0.262,-1.054 7.229,7.229 0 0 1 0.8,-1.411 10.048,10.048 0 0 1 2.746,-2.589 11.35,11.35 0 0 1 3.98,-1.624 16.778,16.778 0 0 1 4.834,0.092 21.956,21.956 0 0 1 3.365,0.36 5.991,5.991 0 0 1 2.832,1.864 c 2.384,2.494 2.716,5.993 2.5,9.28 a 11.829,11.829 0 0 1 -0.669,3.76 c -0.667,1.536 -2.227,1.469 -3.285,0.361 -0.946,-0.989 -3.13,-0.64 -3.343,0.883 -0.1,0.7 -0.171,1.517 -0.974,1.631 a 1.688,1.688 0 0 1 -1.869,-0.985 2.023,2.023 0 0 0 -3.656,-0.477 c -0.563,0.958 -2.3,-0.014 -2.425,-0.847 -0.255,-1.734 -2.892,-1.888 -3.655,-0.477 0.119,-0.22 0.322,0.064 -0.161,-0.074 a 1.734,1.734 0 0 1 -0.859,-0.4 3.491,3.491 0 0 1 -0.52,-2.376 c 0,-1.966 -0.022,-3.952 0.1,-5.915 0.155,-2.571 -3.846,-2.562 -4,0 -0.093,1.544 -0.06,3.094 -0.076,4.64 a 11.35,11.35 0 0 0 0.653,4.98 c 1.365,2.98 6.465,4.595 8.32,1.166 l -3.656,-0.478 c 0.293,1.984 2.327,3.477 4.156,3.974 a 5.07,5.07 0 0 0 5.58,-2.172 l -3.655,-0.478 c 0.638,2.562 3.312,4.027 5.844,3.908 a 5.014,5.014 0 0 0 4.713,-4.555 l -3.343,0.883 a 5.921,5.921 0 0 0 6.633,1.579 6.37,6.37 0 0 0 3.639,-4.758 c 0.855,-3.983 0.926,-8.414 -0.713,-12.2 a 11.015,11.015 0 0 0 -8.81,-6.856 c -4.218,-0.477 -8.253,-0.834 -12.18,1.11 -3.525,1.745 -6.808,5.178 -7.1,9.258 -0.187,2.569 3.814,2.557 4,0 z"
         id="path100"
         style="fill:#211715" />
      <path
         class="a"
         d="m 154.634,158.743 c 0.2,-2.534 0.38,-5.089 0.37,-7.631 a 2,2 0 0 0 -4,0 c 0.01,2.542 -0.168,5.1 -0.37,7.631 a 2.01,2.01 0 0 0 2,2 2.051,2.051 0 0 0 2,-2 z"
         id="path101"
         style="fill:#211715" />
      <path
         class="a"
         d="m 148.03,158.762 a 61.411,61.411 0 0 0 0.448,-7.97 2,2 0 1 0 -4,0 61.411,61.411 0 0 1 -0.448,7.97 2.008,2.008 0 0 0 2,2 2.053,2.053 0 0 0 2,-2 z"
         id="path102"
         style="fill:#211715" />
      <path
         class="a"
         d="m 142.085,157.385 a 53.521,53.521 0 0 0 0.419,-6.273 2,2 0 0 0 -4,0 53.521,53.521 0 0 1 -0.419,6.273 2,2 0 0 0 0.586,1.414 2,2 0 0 0 2.829,0 2.313,2.313 0 0 0 0.585,-1.414 z"
         id="path103"
         style="fill:#211715" />
      <path
         class="b"
         d="m 230.439,152.555 c 0.166,-4 -5.179,-10.165 -12.318,-9.879 -4.522,0.182 -6.083,-0.737 -9.459,2.276 -3.072,2.741 -3.946,6.917 -3.879,11.05 0.032,0.567 0.089,1.733 0.089,1.733 0.1,2.009 0.67,3.588 2.224,4.4 a 3.839,3.839 0 0 0 4.534,-0.766 c 0.038,1.895 0.961,3.166 2.653,3.345 1.692,0.179 3.55,-0.589 3.963,-2.106 a 3.069,3.069 0 0 0 3.076,1.567 c 1.086,-0.163 2.9,-1.04 3.1,-2.345 0.423,1.322 2.556,1.378 3.882,0.5 1.326,-0.878 1.631,-2.632 1.732,-4.22 0.101,-1.588 0.38,-4.267 0.405,-5.557"
         id="path104"
         style="fill:#ffffff" />
      <path
         class="a"
         d="m 232.439,152.555 c 0.059,-3.443 -2.263,-6.631 -4.86,-8.673 a 14.79,14.79 0 0 0 -5.694,-2.821 28.626,28.626 0 0 0 -6.287,-0.37 10.462,10.462 0 0 0 -9.947,4.636 c -2.606,3.49 -3.021,8.007 -2.788,12.217 0.128,2.306 0.705,4.575 2.686,5.979 2.419,1.716 5.379,1.115 7.5,-0.738 l -3.414,-1.414 c 0.127,2.539 1.445,4.838 4.121,5.273 a 5.651,5.651 0 0 0 6.424,-3.5 l -3.656,0.478 c 1.923,4.063 8.826,2.924 9.83,-1.256 l -3.656,0.478 c 1.506,3.555 6.788,2.071 8.323,-0.586 a 11.247,11.247 0 0 0 1.073,-4.909 c 0.123,-1.6 0.3,-3.192 0.35,-4.792 0.074,-2.575 -3.926,-2.573 -4,0 -0.058,2.013 -0.212,4.072 -0.446,6.072 a 2.8,2.8 0 0 1 -0.829,2.055 2.664,2.664 0 0 1 -0.855,0.238 0.612,0.612 0 0 1 -0.293,-0.046 c 0.156,0.035 0.341,0.445 0.131,-0.051 -0.685,-1.617 -3.282,-1.078 -3.656,0.478 -0.225,0.937 -2.068,1.251 -2.518,0.3 -0.793,-1.676 -3.142,-1.006 -3.655,0.478 -0.2,0.586 -1.289,0.749 -1.811,0.662 -0.729,-0.122 -0.843,-0.7 -0.877,-1.37 a 2.026,2.026 0 0 0 -3.414,-1.415 1.817,1.817 0 0 1 -2.981,-0.445 8.7,8.7 0 0 1 -0.439,-3.272 c -0.124,-3.1 0.341,-6.651 2.473,-9.065 a 7.493,7.493 0 0 1 3.118,-2.263 10.813,10.813 0 0 1 3.372,-0.217 24.708,24.708 0 0 1 4.72,0.148 11.207,11.207 0 0 1 4.018,1.71 c 1.981,1.332 3.98,3.771 3.942,6 -0.045,2.575 3.955,2.575 4,0 z"
         id="path105"
         style="fill:#211715" />
      <path
         class="a"
         d="m 213.63,161.371 c 0.024,-2.542 0.074,-5.1 0.31,-7.634 a 2.007,2.007 0 0 0 -2,-2 2.054,2.054 0 0 0 -2,2 c -0.236,2.532 -0.286,5.092 -0.31,7.634 a 2,2 0 0 0 4,0 z"
         id="path106"
         style="fill:#211715" />
      <path
         class="a"
         d="m 220.206,161.977 a 61.561,61.561 0 0 1 0.263,-7.978 1.985,1.985 0 0 0 -0.586,-1.414 2,2 0 0 0 -2.828,0 2.363,2.363 0 0 0 -0.586,1.414 61.561,61.561 0 0 0 -0.263,7.978 2,2 0 0 0 4,0 z"
         id="path107"
         style="fill:#211715" />
      <path
         class="a"
         d="m 226.25,161.134 a 53.6,53.6 0 0 1 0.141,-6.286 2,2 0 0 0 -0.586,-1.414 2,2 0 0 0 -2.828,0 2.264,2.264 0 0 0 -0.586,1.414 53.6,53.6 0 0 0 -0.141,6.286 2,2 0 1 0 4,0 z"
         id="path108"
         style="fill:#211715" />
      <path
         class="a"
         d="m 177.457,130.746 c 1.4,1.5 3.7,2.019 5.669,2.121 a 8.3,8.3 0 0 0 5.949,-1.729 2.015,2.015 0 0 0 0,-2.829 2.048,2.048 0 0 0 -2.829,0 c -0.308,0.277 0.383,-0.243 0.136,-0.1 -0.107,0.062 -0.207,0.135 -0.315,0.2 -0.108,0.065 -0.562,0.261 -0.2,0.112 0.362,-0.149 -0.187,0.063 -0.3,0.1 q -0.262,0.081 -0.53,0.141 c -0.117,0.027 -0.235,0.048 -0.353,0.071 -0.362,0.07 0.349,-0.032 0.085,-0.007 a 11.227,11.227 0 0 1 -1.64,0.047 c -0.131,-0.007 -0.261,-0.016 -0.391,-0.027 -0.075,-0.007 -0.149,-0.014 -0.224,-0.023 q -0.234,-0.027 0.173,0.025 a 1.949,1.949 0 0 1 -0.659,-0.124 c -0.215,-0.05 -0.428,-0.108 -0.637,-0.176 -0.209,-0.068 -0.747,-0.364 -0.163,-0.041 -0.273,-0.151 -0.549,-0.284 -0.815,-0.449 -0.356,-0.222 0.369,0.333 0.095,0.076 -0.074,-0.069 -0.15,-0.135 -0.219,-0.21 a 2.018,2.018 0 0 0 -2.829,0 2.043,2.043 0 0 0 0,2.828 z"
         id="path109"
         style="fill:#211715" />
      <path
         class="a"
         d="m 181.852,117.728 c -0.2,0.788 -0.382,1.584 -0.512,2.388 a 3.584,3.584 0 0 0 -0.008,1.593 2.384,2.384 0 0 0 1.251,1.539 3.279,3.279 0 0 0 1.572,0.388 c 0.338,-0.017 0.66,-0.1 0.992,-0.145 a 2.238,2.238 0 0 0 1.2,-0.919 2,2 0 0 0 -0.718,-2.737 l -0.477,-0.2 a 2,2 0 0 0 -1.064,0 c -0.117,0.016 -0.233,0.046 -0.35,0.063 l 0.531,-0.072 a 1.3,1.3 0 0 1 -0.312,0 l 0.532,0.072 a 1.49,1.49 0 0 1 -0.333,-0.095 l 0.478,0.2 a 1.487,1.487 0 0 1 -0.2,-0.1 l 0.405,0.313 a 0.517,0.517 0 0 1 -0.082,-0.08 l 0.312,0.4 a 0.6,0.6 0 0 1 -0.055,-0.1 l 0.2,0.478 a 0.756,0.756 0 0 1 -0.039,-0.154 l 0.071,0.531 a 1.583,1.583 0 0 1 0.007,-0.344 l -0.071,0.532 a 23.129,23.129 0 0 1 0.528,-2.494 2.086,2.086 0 0 0 -0.2,-1.541 2,2 0 0 0 -3.655,0.478 z"
         id="path110"
         style="fill:#211715" />
      <path
         class="a"
         d="m 169.3,110.744 c -0.512,1.435 -0.369,4.794 2.373,5.2 3.643,0.141 4.017,-3.9 2.876,-5.853 -0.933,-1.601 -3.856,-2.38 -5.249,0.653 z"
         id="path111"
         style="fill:#211715" />
      <path
         class="a"
         d="m 198.346,112.038 c 0.383,1.475 -0.058,4.807 -2.826,4.969 -3.641,-0.184 -3.655,-4.238 -2.344,-6.085 1.073,-1.513 4.053,-2.029 5.17,1.116 z"
         id="path112"
         style="fill:#211715" />
      <path
         class="a"
         d="m 230.807,155.319 c 16.2,-0.328 32.393,-0.666 48.592,-0.365 2.575,0.048 2.575,-3.952 0,-4 -16.2,-0.3 -32.4,0.037 -48.592,0.365 -2.57,0.052 -2.579,4.052 0,4 z"
         id="path113"
         style="fill:#211715" />
      <path
         class="a"
         d="m 159.945,156.18 c 12.7,-0.078 25.4,-0.04 38.094,-0.066 2.046,0 4.092,0 6.137,-0.03 2.572,-0.032 2.579,-4.032 0,-4 -11.253,0.14 -22.512,0.035 -33.767,0.057 q -5.232,0.011 -10.464,0.039 c -2.573,0.015 -2.578,4.015 0,4 z"
         id="path114"
         style="fill:#211715" />
      <path
         class="a"
         d="m 99.158,154.88 c 11.6,0.222 23.194,0.648 34.794,0.8 2.575,0.033 2.577,-3.967 0,-4 -11.6,-0.15 -23.195,-0.576 -34.794,-0.8 -2.575,-0.05 -2.575,3.95 0,4 z"
         id="path115"
         style="fill:#211715" />
    </g>
    <text
       xml:space="preserve"
       id="text1"
       style="font-style:normal;font-variant:normal;font-weight:normal;font-stretch:normal;font-size:16px;font-family:'Baskerville Old Face';-inkscape-font-specification:'Baskerville Old Face';text-align:start;writing-mode:lr-tb;direction:ltr;white-space:pre;shape-inside:url(#rect1);fill:#ff0000;stroke:#ffffff"
       x="37.672852"
       y="0"
       transform="matrix(1.100667,0,0,1.100667,-16.066346,-2.5563669)"><tspan
         x="101.7041"
         y="14.698985"
         id="tspan3"><tspan
           style="text-align:center;text-anchor:middle;fill:#28b485;stroke:#28b485"
           id="tspan2">Adventurous
</tspan></tspan><tspan
         x="117.71582"
         y="34.698985"
         id="tspan5"><tspan
           style="text-align:center;text-anchor:middle;fill:#28b485;stroke:#28b485"
           id="tspan4">Journey</tspan></tspan></text>
  </g>
</svg>
